<svg xmlns="http://www.w3.org/2000/svg" xmlns:xlink="http://www.w3.org/1999/xlink" contentStyleType="text/css" data-diagram-type="DESCRIPTION" height="345px" preserveAspectRatio="none" style="width:2690px;height:345px;background:#FFFFFF;" version="1.1" viewBox="0 0 2690 345" width="2690px" zoomAndPan="magnify"><title>XVA / CCR / PFE Engine - High Level Architecture</title><defs/><g><g class="title" data-source-line="2"><text fill="#000000" font-family="sans-serif" font-size="14" font-weight="bold" lengthAdjust="spacing" textLength="359.1055" x="1158.4473" y="23.5352">XVA / CCR / PFE Engine - High Level Architecture</text></g><!--cluster Configuration--><g class="cluster" data-entity="Configuration" data-source-line="6" data-uid="ent0002" id="cluster_Configuration"><path d="M8.5,154.9683 L109.3525,154.9683 A3.75,3.75 0 0 1 111.8525,157.4683 L118.8525,177.4566 L127.5,177.4566 A2.5,2.5 0 0 1 130,179.9566 L130,239.9583 A2.5,2.5 0 0 1 127.5,242.4583 L8.5,242.4583 A2.5,2.5 0 0 1 6,239.9583 L6,157.4683 A2.5,2.5 0 0 1 8.5,154.9683" fill="none" style="stroke:#000000;stroke-width:1.5;"/><line style="stroke:#000000;stroke-width:1.5;" x1="6" x2="118.8525" y1="177.4566" y2="177.4566"/><text fill="#000000" font-family="sans-serif" font-size="14" font-weight="bold" lengthAdjust="spacing" textLength="99.8525" x="10" y="170.5034">Configuration</text></g><!--cluster Orchestration--><g class="cluster" data-entity="Orchestration" data-source-line="10" data-uid="ent0004" id="cluster_Orchestration"><path d="M1369.5,43.4883 L1469.7852,43.4883 A3.75,3.75 0 0 1 1472.2852,45.9883 L1479.2852,65.9766 L1687.5,65.9766 A2.5,2.5 0 0 1 1690,68.4766 L1690,128.4683 A2.5,2.5 0 0 1 1687.5,130.9683 L1369.5,130.9683 A2.5,2.5 0 0 1 1367,128.4683 L1367,45.9883 A2.5,2.5 0 0 1 1369.5,43.4883" fill="none" style="stroke:#000000;stroke-width:1.5;"/><line style="stroke:#000000;stroke-width:1.5;" x1="1367" x2="1479.2852" y1="65.9766" y2="65.9766"/><text fill="#000000" font-family="sans-serif" font-size="14" font-weight="bold" lengthAdjust="spacing" textLength="99.2852" x="1371" y="59.0234">Orchestration</text></g><!--cluster Market Data--><g class="cluster" data-entity="Market Data" data-source-line="15" data-uid="ent0007" id="cluster_Market Data"><path d="M156.5,154.9683 L245.3896,154.9683 A3.75,3.75 0 0 1 247.8896,157.4683 L254.8896,177.4566 L367.5,177.4566 A2.5,2.5 0 0 1 370,179.9566 L370,336.4483 A2.5,2.5 0 0 1 367.5,338.9483 L156.5,338.9483 A2.5,2.5 0 0 1 154,336.4483 L154,157.4683 A2.5,2.5 0 0 1 156.5,154.9683" fill="none" style="stroke:#000000;stroke-width:1.5;"/><line style="stroke:#000000;stroke-width:1.5;" x1="154" x2="254.8896" y1="177.4566" y2="177.4566"/><text fill="#000000" font-family="sans-serif" font-size="14" font-weight="bold" lengthAdjust="spacing" textLength="87.8896" x="158" y="170.5034">Market Data</text></g><!--cluster Models & Simulation--><g class="cluster" data-entity="Models . Simulation" data-source-line="20" data-uid="ent0010" id="cluster_Models . Simulation"><path d="M396.5,154.9683 L545.2178,154.9683 A3.75,3.75 0 0 1 547.7178,157.4683 L554.7178,177.4566 L1004.5,177.4566 A2.5,2.5 0 0 1 1007,179.9566 L1007,336.4483 A2.5,2.5 0 0 1 1004.5,338.9483 L396.5,338.9483 A2.5,2.5 0 0 1 394,336.4483 L394,157.4683 A2.5,2.5 0 0 1 396.5,154.9683" fill="none" style="stroke:#000000;stroke-width:1.5;"/><line style="stroke:#000000;stroke-width:1.5;" x1="394" x2="554.7178" y1="177.4566" y2="177.4566"/><text fill="#000000" font-family="sans-serif" font-size="14" font-weight="bold" lengthAdjust="spacing" textLength="147.7178" x="398" y="170.5034">Models &amp; Simulation</text></g><!--cluster Instruments & Pricing--><g class="cluster" data-entity="Instruments . Pricing" data-source-line="28" data-uid="ent0016" id="cluster_Instruments . Pricing"><path d="M1843.5,154.9683 L2001.6377,154.9683 A3.75,3.75 0 0 1 2004.1377,157.4683 L2011.1377,177.4566 L2379.5,177.4566 A2.5,2.5 0 0 1 2382,179.9566 L2382,336.4483 A2.5,2.5 0 0 1 2379.5,338.9483 L1843.5,338.9483 A2.5,2.5 0 0 1 1841,336.4483 L1841,157.4683 A2.5,2.5 0 0 1 1843.5,154.9683" fill="none" style="stroke:#000000;stroke-width:1.5;"/><line style="stroke:#000000;stroke-width:1.5;" x1="1841" x2="2011.1377" y1="177.4566" y2="177.4566"/><text fill="#000000" font-family="sans-serif" font-size="14" font-weight="bold" lengthAdjust="spacing" textLength="157.1377" x="1845" y="170.5034">Instruments &amp; Pricing</text></g><!--cluster Collateral & Aggregation--><g class="cluster" data-entity="Collateral . Aggregation" data-source-line="36" data-uid="ent0022" id="cluster_Collateral . Aggregation"><path d="M1361.5,154.9683 L1540.6035,154.9683 A3.75,3.75 0 0 1 1543.1035,157.4683 L1550.1035,177.4566 L1814.5,177.4566 A2.5,2.5 0 0 1 1817,179.9566 L1817,336.4483 A2.5,2.5 0 0 1 1814.5,338.9483 L1361.5,338.9483 A2.5,2.5 0 0 1 1359,336.4483 L1359,157.4683 A2.5,2.5 0 0 1 1361.5,154.9683" fill="none" style="stroke:#000000;stroke-width:1.5;"/><line style="stroke:#000000;stroke-width:1.5;" x1="1359" x2="1550.1035" y1="177.4566" y2="177.4566"/><text fill="#000000" font-family="sans-serif" font-size="14" font-weight="bold" lengthAdjust="spacing" textLength="178.1035" x="1363" y="170.5034">Collateral &amp; Aggregation</text></g><!--cluster Validation & Backtesting--><g class="cluster" data-entity="Validation . Backtesting" data-source-line="44" data-uid="ent0028" id="cluster_Validation . Backtesting"><path d="M2408.5,154.9683 L2585.9492,154.9683 A3.75,3.75 0 0 1 2588.4492,157.4683 L2595.4492,177.4566 L2680.5,177.4566 A2.5,2.5 0 0 1 2683,179.9566 L2683,336.4483 A2.5,2.5 0 0 1 2680.5,338.9483 L2408.5,338.9483 A2.5,2.5 0 0 1 2406,336.4483 L2406,157.4683 A2.5,2.5 0 0 1 2408.5,154.9683" fill="none" style="stroke:#000000;stroke-width:1.5;"/><line style="stroke:#000000;stroke-width:1.5;" x1="2406" x2="2595.4492" y1="177.4566" y2="177.4566"/><text fill="#000000" font-family="sans-serif" font-size="14" font-weight="bold" lengthAdjust="spacing" textLength="176.4492" x="2410" y="170.5034">Validation &amp; Backtesting</text></g><!--cluster Reporting--><g class="cluster" data-entity="Reporting" data-source-line="50" data-uid="ent0032" id="cluster_Reporting"><path d="M1033.5,154.9683 L1105.6006,154.9683 A3.75,3.75 0 0 1 1108.1006,157.4683 L1115.1006,177.4566 L1332.5,177.4566 A2.5,2.5 0 0 1 1335,179.9566 L1335,239.9583 A2.5,2.5 0 0 1 1332.5,242.4583 L1033.5,242.4583 A2.5,2.5 0 0 1 1031,239.9583 L1031,157.4683 A2.5,2.5 0 0 1 1033.5,154.9683" fill="none" style="stroke:#000000;stroke-width:1.5;"/><line style="stroke:#000000;stroke-width:1.5;" x1="1031" x2="1115.1006" y1="177.4566" y2="177.4566"/><text fill="#000000" font-family="sans-serif" font-size="14" font-weight="bold" lengthAdjust="spacing" textLength="71.1006" x="1035" y="170.5034">Reporting</text></g><!--entity RunConfig--><g class="entity" data-entity="RunConfig" data-source-line="7" data-uid="ent0003" id="entity_RunConfig"><rect fill="#F1F1F1" height="36.4883" rx="2.5" ry="2.5" style="stroke:#181818;stroke-width:0.5;" width="91.1279" x="22.44" y="189.9683"/><text fill="#000000" font-family="sans-serif" font-size="14" lengthAdjust="spacing" textLength="71.1279" x="32.44" y="213.5034">RunConfig</text></g><!--entity EngineRunner--><g class="entity" data-entity="EngineRunner" data-source-line="11" data-uid="ent0005" id="entity_EngineRunner"><rect fill="#F1F1F1" height="36.4883" rx="2.5" ry="2.5" style="stroke:#181818;stroke-width:0.5;" width="113.9873" x="1383.01" y="78.4883"/><text fill="#000000" font-family="sans-serif" font-size="14" lengthAdjust="spacing" textLength="93.9873" x="1393.01" y="102.0234">EngineRunner</text></g><!--entity WorkflowManager--><g class="entity" data-entity="WorkflowManager" data-source-line="12" data-uid="ent0006" id="entity_WorkflowManager"><rect fill="#F1F1F1" height="36.4883" rx="2.5" ry="2.5" style="stroke:#181818;stroke-width:0.5;" width="141.5361" x="1532.23" y="78.4883"/><text fill="#000000" font-family="sans-serif" font-size="14" lengthAdjust="spacing" textLength="121.5361" x="1542.23" y="102.0234">WorkflowManager</text></g><!--entity MarketDataEnvironment--><g class="entity" data-entity="MarketDataEnvironment" data-source-line="16" data-uid="ent0008" id="entity_MarketDataEnvironment"><rect fill="#F1F1F1" height="36.4883" rx="2.5" ry="2.5" style="stroke:#181818;stroke-width:0.5;" width="183.3037" x="170.35" y="189.9683"/><text fill="#000000" font-family="sans-serif" font-size="14" lengthAdjust="spacing" textLength="163.3037" x="180.35" y="213.5034">MarketDataEnvironment</text></g><!--entity MarketDataSource--><g class="entity" data-entity="MarketDataSource" data-source-line="17" data-uid="ent0009" id="entity_MarketDataSource"><rect fill="#F1F1F1" height="36.4883" rx="2.5" ry="2.5" style="stroke:#181818;stroke-width:0.5;" width="143.4502" x="190.27" y="286.4583"/><text fill="#000000" font-family="sans-serif" font-size="14" lengthAdjust="spacing" textLength="123.4502" x="200.27" y="309.9934">MarketDataSource</text></g><!--entity RiskFactorModel--><g class="entity" data-entity="RiskFactorModel" data-source-line="21" data-uid="ent0011" id="entity_RiskFactorModel"><rect fill="#F1F1F1" height="36.4883" rx="2.5" ry="2.5" style="stroke:#181818;stroke-width:0.5;" width="131.5078" x="527.25" y="286.4583"/><text fill="#000000" font-family="sans-serif" font-size="14" lengthAdjust="spacing" textLength="111.5078" x="537.25" y="309.9934">RiskFactorModel</text></g><!--entity CorrelationModel--><g class="entity" data-entity="CorrelationModel" data-source-line="22" data-uid="ent0012" id="entity_CorrelationModel"><rect fill="#F1F1F1" height="36.4883" rx="2.5" ry="2.5" style="stroke:#181818;stroke-width:0.5;" width="137.209" x="693.4" y="286.4583"/><text fill="#000000" font-family="sans-serif" font-size="14" lengthAdjust="spacing" textLength="117.209" x="703.4" y="309.9934">CorrelationModel</text></g><!--entity SimulationDriver--><g class="entity" data-entity="SimulationDriver" data-source-line="23" data-uid="ent0013" id="entity_SimulationDriver"><rect fill="#F1F1F1" height="36.4883" rx="2.5" ry="2.5" style="stroke:#181818;stroke-width:0.5;" width="132.7314" x="695.63" y="189.9683"/><text fill="#000000" font-family="sans-serif" font-size="14" lengthAdjust="spacing" textLength="112.7314" x="705.63" y="213.5034">SimulationDriver</text></g><!--entity TimeGrid--><g class="entity" data-entity="TimeGrid" data-source-line="24" data-uid="ent0014" id="entity_TimeGrid"><rect fill="#F1F1F1" height="36.4883" rx="2.5" ry="2.5" style="stroke:#181818;stroke-width:0.5;" width="82.4736" x="409.76" y="286.4583"/><text fill="#000000" font-family="sans-serif" font-size="14" lengthAdjust="spacing" textLength="62.4736" x="419.76" y="309.9934">TimeGrid</text></g><!--entity RiskFactorCube--><g class="entity" data-entity="RiskFactorCube" data-source-line="25" data-uid="ent0015" id="entity_RiskFactorCube"><rect fill="#F1F1F1" height="36.4883" rx="2.5" ry="2.5" style="stroke:#181818;stroke-width:0.5;" width="125.1777" x="865.41" y="286.4583"/><text fill="#000000" font-family="sans-serif" font-size="14" lengthAdjust="spacing" textLength="105.1777" x="875.41" y="309.9934">RiskFactorCube</text></g><!--entity Instrument--><g class="entity" data-entity="Instrument" data-source-line="29" data-uid="ent0017" id="entity_Instrument"><rect fill="#F1F1F1" height="36.4883" rx="2.5" ry="2.5" style="stroke:#181818;stroke-width:0.5;" width="94.3066" x="2011.85" y="286.4583"/><text fill="#000000" font-family="sans-serif" font-size="14" lengthAdjust="spacing" textLength="74.3066" x="2021.85" y="309.9934">Instrument</text></g><!--entity Portfolio--><g class="entity" data-entity="Portfolio" data-source-line="30" data-uid="ent0018" id="entity_Portfolio"><rect fill="#F1F1F1" height="36.4883" rx="2.5" ry="2.5" style="stroke:#181818;stroke-width:0.5;" width="77.7432" x="2141.13" y="286.4583"/><text fill="#000000" font-family="sans-serif" font-size="14" lengthAdjust="spacing" textLength="57.7432" x="2151.13" y="309.9934">Portfolio</text></g><!--entity PricingContext--><g class="entity" data-entity="PricingContext" data-source-line="31" data-uid="ent0019" id="entity_PricingContext"><rect fill="#F1F1F1" height="36.4883" rx="2.5" ry="2.5" style="stroke:#181818;stroke-width:0.5;" width="119.9824" x="1857.01" y="286.4583"/><text fill="#000000" font-family="sans-serif" font-size="14" lengthAdjust="spacing" textLength="99.9824" x="1867.01" y="309.9934">PricingContext</text></g><!--entity PricingEngine--><g class="entity" data-entity="PricingEngine" data-source-line="32" data-uid="ent0020" id="entity_PricingEngine"><rect fill="#F1F1F1" height="36.4883" rx="2.5" ry="2.5" style="stroke:#181818;stroke-width:0.5;" width="111.6904" x="2254.15" y="286.4583"/><text fill="#000000" font-family="sans-serif" font-size="14" lengthAdjust="spacing" textLength="91.6904" x="2264.15" y="309.9934">PricingEngine</text></g><!--entity PortfolioPricer--><g class="entity" data-entity="PortfolioPricer" data-source-line="33" data-uid="ent0021" id="entity_PortfolioPricer"><rect fill="#F1F1F1" height="36.4883" rx="2.5" ry="2.5" style="stroke:#181818;stroke-width:0.5;" width="115.9561" x="1859.02" y="189.9683"/><text fill="#000000" font-family="sans-serif" font-size="14" lengthAdjust="spacing" textLength="95.9561" x="1869.02" y="213.5034">PortfolioPricer</text></g><!--entity CSA--><g class="entity" data-entity="CSA" data-source-line="37" data-uid="ent0023" id="entity_CSA"><rect fill="#F1F1F1" height="36.4883" rx="2.5" ry="2.5" style="stroke:#181818;stroke-width:0.5;" width="46.8857" x="1416.56" y="286.4583"/><text fill="#000000" font-family="sans-serif" font-size="14" lengthAdjust="spacing" textLength="26.8857" x="1426.56" y="309.9934">CSA</text></g><!--entity CollateralEngine--><g class="entity" data-entity="CollateralEngine" data-source-line="38" data-uid="ent0024" id="entity_CollateralEngine"><rect fill="#F1F1F1" height="36.4883" rx="2.5" ry="2.5" style="stroke:#181818;stroke-width:0.5;" width="130.1953" x="1374.9" y="189.9683"/><text fill="#000000" font-family="sans-serif" font-size="14" lengthAdjust="spacing" textLength="110.1953" x="1384.9" y="213.5034">CollateralEngine</text></g><!--entity ExposureCube--><g class="entity" data-entity="ExposureCube" data-source-line="39" data-uid="ent0025" id="entity_ExposureCube"><rect fill="#F1F1F1" height="36.4883" rx="2.5" ry="2.5" style="stroke:#181818;stroke-width:0.5;" width="117.9248" x="1615.04" y="286.4583"/><text fill="#000000" font-family="sans-serif" font-size="14" lengthAdjust="spacing" textLength="97.9248" x="1625.04" y="309.9934">ExposureCube</text></g><!--entity ExposureMetrics--><g class="entity" data-entity="ExposureMetrics" data-source-line="40" data-uid="ent0026" id="entity_ExposureMetrics"><rect fill="#F1F1F1" height="36.4883" rx="2.5" ry="2.5" style="stroke:#181818;stroke-width:0.5;" width="132.1162" x="1539.94" y="189.9683"/><text fill="#000000" font-family="sans-serif" font-size="14" lengthAdjust="spacing" textLength="112.1162" x="1549.94" y="213.5034">ExposureMetrics</text></g><!--entity XVAEngine--><g class="entity" data-entity="XVAEngine" data-source-line="41" data-uid="ent0027" id="entity_XVAEngine"><rect fill="#F1F1F1" height="36.4883" rx="2.5" ry="2.5" style="stroke:#181818;stroke-width:0.5;" width="93.1172" x="1707.44" y="189.9683"/><text fill="#000000" font-family="sans-serif" font-size="14" lengthAdjust="spacing" textLength="73.1172" x="1717.44" y="213.5034">XVAEngine</text></g><!--entity Backtest--><g class="entity" data-entity="Backtest" data-source-line="45" data-uid="ent0029" id="entity_Backtest"><rect fill="#F1F1F1" height="36.4883" rx="2.5" ry="2.5" style="stroke:#181818;stroke-width:0.5;" width="76.5469" x="2421.73" y="189.9683"/><text fill="#000000" font-family="sans-serif" font-size="14" lengthAdjust="spacing" textLength="56.5469" x="2431.73" y="213.5034">Backtest</text></g><!--entity StatsTests--><g class="entity" data-entity="StatsTests" data-source-line="46" data-uid="ent0030" id="entity_StatsTests"><rect fill="#F1F1F1" height="36.4883" rx="2.5" ry="2.5" style="stroke:#181818;stroke-width:0.5;" width="89.043" x="2422.48" y="286.4583"/><text fill="#000000" font-family="sans-serif" font-size="14" lengthAdjust="spacing" textLength="69.043" x="2432.48" y="309.9934">StatsTests</text></g><!--entity PricerBenchmark--><g class="entity" data-entity="PricerBenchmark" data-source-line="47" data-uid="ent0031" id="entity_PricerBenchmark"><rect fill="#F1F1F1" height="36.4883" rx="2.5" ry="2.5" style="stroke:#181818;stroke-width:0.5;" width="133.3262" x="2533.34" y="189.9683"/><text fill="#000000" font-family="sans-serif" font-size="14" lengthAdjust="spacing" textLength="113.3262" x="2543.34" y="213.5034">PricerBenchmark</text></g><!--entity ReportExporter--><g class="entity" data-entity="ReportExporter" data-source-line="51" data-uid="ent0033" id="entity_ReportExporter"><rect fill="#F1F1F1" height="36.4883" rx="2.5" ry="2.5" style="stroke:#181818;stroke-width:0.5;" width="123.1064" x="1047.45" y="189.9683"/><text fill="#000000" font-family="sans-serif" font-size="14" lengthAdjust="spacing" textLength="103.1064" x="1057.45" y="213.5034">ReportExporter</text></g><!--entity DocGenerator--><g class="entity" data-entity="DocGenerator" data-source-line="52" data-uid="ent0034" id="entity_DocGenerator"><rect fill="#F1F1F1" height="36.4883" rx="2.5" ry="2.5" style="stroke:#181818;stroke-width:0.5;" width="113.6865" x="1205.16" y="189.9683"/><text fill="#000000" font-family="sans-serif" font-size="14" lengthAdjust="spacing" textLength="93.6865" x="1215.16" y="213.5034">DocGenerator</text></g><!--link EngineRunner to RunConfig--><g class="link" data-entity-1="EngineRunner" data-entity-2="RunConfig" data-source-line="55" data-uid="lnk35" id="link_EngineRunner_RunConfig"><path d="M1382.62,98.0183 C1148.34,99.4683 271.26,107.5083 154,146.9683 C127.91,155.7483 107.1751,171.1641 90.8651,185.5841" fill="none" id="EngineRunner-to-RunConfig" style="stroke:#181818;stroke-width:1;"/><polygon fill="#181818" points="86.37,189.5583,95.7621,186.5937,90.1159,186.2465,90.4632,180.6003,86.37,189.5583" style="stroke:#181818;stroke-width:1;"/></g><!--link EngineRunner to MarketDataEnvironment--><g class="link" data-entity-1="EngineRunner" data-entity-2="MarketDataEnvironment" data-source-line="56" data-uid="lnk36" id="link_EngineRunner_MarketDataEnvironment"><path d="M1382.72,97.5683 C1192.62,97.5083 583.94,100.9683 394,146.9683 C357.15,155.8983 323.2635,172.2499 297.2535,186.5999" fill="none" id="EngineRunner-to-MarketDataEnvironment" style="stroke:#181818;stroke-width:1;"/><polygon fill="#181818" points="292,189.4983,301.8125,188.653,296.3779,187.0829,297.948,181.6483,292,189.4983" style="stroke:#181818;stroke-width:1;"/></g><!--link EngineRunner to SimulationDriver--><g class="link" data-entity-1="EngineRunner" data-entity-2="SimulationDriver" data-source-line="57" data-uid="lnk37" id="link_EngineRunner_SimulationDriver"><path d="M1382.84,102.7783 C1303.52,110.2083 1155.76,125.5483 1031,146.9683 C961.55,158.8983 888.8181,175.6124 834.6181,188.8724" fill="none" id="EngineRunner-to-SimulationDriver" style="stroke:#181818;stroke-width:1;"/><polygon fill="#181818" points="828.79,190.2983,838.4827,192.0449,833.6468,189.1101,836.5816,184.2741,828.79,190.2983" style="stroke:#181818;stroke-width:1;"/></g><!--link EngineRunner to PortfolioPricer--><g class="link" data-entity-1="EngineRunner" data-entity-2="PortfolioPricer" data-source-line="58" data-uid="lnk38" id="link_EngineRunner_PortfolioPricer"><path d="M1464.73,115.2583 C1478.77,124.1683 1497.07,134.1183 1515,138.9683 C1579.8,156.5283 1752.56,128.1383 1817,146.9683 C1846.57,155.6183 1871.489,171.6164 1890.749,186.1364" fill="none" id="EngineRunner-to-PortfolioPricer" style="stroke:#181818;stroke-width:1;"/><polygon fill="#181818" points="1895.54,189.7483,1890.7614,181.1364,1891.5475,186.7383,1885.9455,187.5244,1895.54,189.7483" style="stroke:#181818;stroke-width:1;"/></g><!--link EngineRunner to CollateralEngine--><g class="link" data-entity-1="EngineRunner" data-entity-2="CollateralEngine" data-source-line="59" data-uid="lnk39" id="link_EngineRunner_CollateralEngine"><path d="M1440,115.3183 C1440,135.7483 1440,163.2583 1440,183.6683" fill="none" id="EngineRunner-to-CollateralEngine" style="stroke:#181818;stroke-width:1;"/><polygon fill="#181818" points="1440,189.6683,1444,180.6683,1440,184.6683,1436,180.6683,1440,189.6683" style="stroke:#181818;stroke-width:1;"/></g><!--link EngineRunner to ExposureMetrics--><g class="link" data-entity-1="EngineRunner" data-entity-2="ExposureMetrics" data-source-line="60" data-uid="lnk40" id="link_EngineRunner_ExposureMetrics"><path d="M1471.16,115.2983 C1486.91,124.4183 1506.2,135.9283 1523,146.9683 C1543.68,160.5683 1561.5721,173.5555 1577.9921,185.8855" fill="none" id="EngineRunner-to-ExposureMetrics" style="stroke:#181818;stroke-width:1;"/><polygon fill="#181818" points="1582.79,189.4883,1577.995,180.8855,1578.7918,186.4859,1573.1913,187.2827,1582.79,189.4883" style="stroke:#181818;stroke-width:1;"/></g><!--link EngineRunner to XVAEngine--><g class="link" data-entity-1="EngineRunner" data-entity-2="XVAEngine" data-source-line="61" data-uid="lnk41" id="link_EngineRunner_XVAEngine"><path d="M1465.11,115.3383 C1479.11,124.1483 1497.26,133.9783 1515,138.9683 C1552.47,149.5183 1654.15,131.7983 1690,146.9683 C1711.22,155.9583 1725.9056,170.6261 1737.4756,184.9861" fill="none" id="EngineRunner-to-XVAEngine" style="stroke:#181818;stroke-width:1;"/><polygon fill="#181818" points="1741.24,189.6583,1738.7082,180.1404,1738.103,185.7648,1732.4786,185.1596,1741.24,189.6583" style="stroke:#181818;stroke-width:1;"/></g><!--link EngineRunner to Backtest--><g class="link" data-entity-1="EngineRunner" data-entity-2="Backtest" data-source-line="62" data-uid="lnk42" id="link_EngineRunner_Backtest"><path d="M1464.7,115.3783 C1478.73,124.3283 1497.03,134.2683 1515,138.9683 C1561.6,151.1683 2336.48,131.2083 2382,146.9683 C2406.58,155.4883 2425.2288,170.8842 2439.7688,185.4342" fill="none" id="EngineRunner-to-Backtest" style="stroke:#181818;stroke-width:1;"/><polygon fill="#181818" points="2444.01,189.6783,2440.4776,180.4847,2440.4757,186.1415,2434.8188,186.1396,2444.01,189.6783" style="stroke:#181818;stroke-width:1;"/></g><!--link EngineRunner to ReportExporter--><g class="link" data-entity-1="EngineRunner" data-entity-2="ReportExporter" data-source-line="63" data-uid="lnk43" id="link_EngineRunner_ReportExporter"><path d="M1382.71,101.4483 C1330.11,106.5783 1251.03,118.6583 1188,146.9683 C1164.71,157.4283 1146.3838,171.8958 1131.3138,185.6358" fill="none" id="EngineRunner-to-ReportExporter" style="stroke:#181818;stroke-width:1;"/><polygon fill="#181818" points="1126.88,189.6783,1136.2257,186.5704,1130.5748,186.3096,1130.8357,180.6587,1126.88,189.6783" style="stroke:#181818;stroke-width:1;"/></g><!--reverse link MarketDataEnvironment to MarketDataSource--><g class="link" data-entity-1="MarketDataEnvironment" data-entity-2="MarketDataSource" data-source-line="65" data-uid="lnk44" id="link_MarketDataEnvironment_MarketDataSource"><path d="M262,232.5483 C262,249.4883 262,269.1483 262,286.1683" fill="none" id="MarketDataEnvironment-backto-MarketDataSource" style="stroke:#181818;stroke-width:1;"/><polygon fill="#181818" points="262,226.5483,258,235.5483,262,231.5483,266,235.5483,262,226.5483" style="stroke:#181818;stroke-width:1;"/></g><!--link SimulationDriver to RiskFactorModel--><g class="link" data-entity-1="SimulationDriver" data-entity-2="RiskFactorModel" data-source-line="67" data-uid="lnk45" id="link_SimulationDriver_RiskFactorModel"><path d="M730.61,226.7683 C700.35,243.6883 660.0471,266.2203 629.7471,283.1603" fill="none" id="SimulationDriver-to-RiskFactorModel" style="stroke:#181818;stroke-width:1;"/><polygon fill="#181818" points="624.51,286.0883,634.3176,285.1878,628.8742,283.6483,630.4137,278.205,624.51,286.0883" style="stroke:#181818;stroke-width:1;"/></g><!--link SimulationDriver to CorrelationModel--><g class="link" data-entity-1="SimulationDriver" data-entity-2="CorrelationModel" data-source-line="68" data-uid="lnk46" id="link_SimulationDriver_CorrelationModel"><path d="M762,226.5483 C762,243.4883 762,263.1483 762,280.1683" fill="none" id="SimulationDriver-to-CorrelationModel" style="stroke:#181818;stroke-width:1;"/><polygon fill="#181818" points="762,286.1683,766,277.1683,762,281.1683,758,277.1683,762,286.1683" style="stroke:#181818;stroke-width:1;"/></g><!--link SimulationDriver to TimeGrid--><g class="link" data-entity-1="SimulationDriver" data-entity-2="TimeGrid" data-source-line="69" data-uid="lnk47" id="link_SimulationDriver_TimeGrid"><path d="M703.87,226.8783 C642.33,245.5683 552.5009,272.8641 498.1909,289.3641" fill="none" id="SimulationDriver-to-TimeGrid" style="stroke:#181818;stroke-width:1;"/><polygon fill="#181818" points="492.45,291.1083,502.2241,292.3193,497.2341,289.6548,499.8986,284.6648,492.45,291.1083" style="stroke:#181818;stroke-width:1;"/></g><!--link SimulationDriver to RiskFactorCube--><g class="link" data-entity-1="SimulationDriver" data-entity-2="RiskFactorCube" data-source-line="70" data-uid="lnk48" id="link_SimulationDriver_RiskFactorCube"><path d="M792.83,226.7683 C822.56,243.6883 862.0756,266.1801 891.8356,283.1201" fill="none" id="SimulationDriver-to-RiskFactorCube" style="stroke:#181818;stroke-width:1;"/><polygon fill="#181818" points="897.05,286.0883,891.2071,278.1598,892.7047,283.6148,887.2496,285.1123,897.05,286.0883" style="stroke:#181818;stroke-width:1;"/></g><!--link PortfolioPricer to Instrument--><g class="link" data-entity-1="PortfolioPricer" data-entity-2="Instrument" data-source-line="72" data-uid="lnk49" id="link_PortfolioPricer_Instrument"><path d="M1943.38,226.7683 C1968.88,243.7383 2002.3153,265.9837 2027.7653,282.9237" fill="none" id="PortfolioPricer-to-Instrument" style="stroke:#181818;stroke-width:1;"/><polygon fill="#181818" points="2032.76,286.2483,2027.4843,277.9316,2028.5977,283.4778,2023.0515,284.5912,2032.76,286.2483" style="stroke:#181818;stroke-width:1;"/></g><!--link PortfolioPricer to Portfolio--><g class="link" data-entity-1="PortfolioPricer" data-entity-2="Portfolio" data-source-line="73" data-uid="lnk50" id="link_PortfolioPricer_Portfolio"><path d="M1966.16,226.8783 C2016.71,245.0383 2088.7734,270.9296 2135.2834,287.6396" fill="none" id="PortfolioPricer-to-Portfolio" style="stroke:#181818;stroke-width:1;"/><polygon fill="#181818" points="2140.93,289.6683,2133.8125,282.8608,2136.2245,287.9777,2131.1076,290.3896,2140.93,289.6683" style="stroke:#181818;stroke-width:1;"/></g><!--link PortfolioPricer to PricingEngine--><g class="link" data-entity-1="PortfolioPricer" data-entity-2="PricingEngine" data-source-line="74" data-uid="lnk51" id="link_PortfolioPricer_PricingEngine"><path d="M1975.41,223.2583 C2050.46,241.3083 2174.0262,271.0158 2247.9862,288.7958" fill="none" id="PortfolioPricer-to-PricingEngine" style="stroke:#181818;stroke-width:1;"/><polygon fill="#181818" points="2253.82,290.1983,2246.0043,284.2054,2248.9585,289.0296,2244.1343,291.9838,2253.82,290.1983" style="stroke:#181818;stroke-width:1;"/></g><!--link PortfolioPricer to PricingContext--><g class="link" data-entity-1="PortfolioPricer" data-entity-2="PricingContext" data-source-line="75" data-uid="lnk52" id="link_PortfolioPricer_PricingContext"><path d="M1917,226.5483 C1917,243.4883 1917,263.1483 1917,280.1683" fill="none" id="PortfolioPricer-to-PricingContext" style="stroke:#181818;stroke-width:1;"/><polygon fill="#181818" points="1917,286.1683,1921,277.1683,1917,281.1683,1913,277.1683,1917,286.1683" style="stroke:#181818;stroke-width:1;"/></g><!--link PortfolioPricer to RiskFactorCube--><g class="link" data-entity-1="PortfolioPricer" data-entity-2="RiskFactorCube" data-source-line="76" data-uid="lnk53" id="link_PortfolioPricer_RiskFactorCube"><path d="M1882.3,226.8683 C1863.48,235.5683 1839.51,245.2983 1817,250.4583 C1737.17,268.7683 1186.5248,292.9987 997.0048,300.8887" fill="none" id="PortfolioPricer-to-RiskFactorCube" style="stroke:#181818;stroke-width:1;"/><polygon fill="#181818" points="991.01,301.1383,1000.1686,304.7605,996.0057,300.9303,999.8358,296.7674,991.01,301.1383" style="stroke:#181818;stroke-width:1;"/></g><!--link PortfolioPricer to ExposureCube--><g class="link" data-entity-1="PortfolioPricer" data-entity-2="ExposureCube" data-source-line="77" data-uid="lnk54" id="link_PortfolioPricer_ExposureCube"><path d="M1875.29,226.7983 C1857.4,234.2383 1836.23,242.9183 1817,250.4583 C1785.8,262.6983 1756.1526,273.771 1728.4426,283.941" fill="none" id="PortfolioPricer-to-ExposureCube" style="stroke:#181818;stroke-width:1;"/><polygon fill="#181818" points="1722.81,286.0083,1732.6371,286.6625,1727.5039,284.2856,1729.8808,279.1523,1722.81,286.0083" style="stroke:#181818;stroke-width:1;"/></g><!--link CollateralEngine to CSA--><g class="link" data-entity-1="CollateralEngine" data-entity-2="CSA" data-source-line="79" data-uid="lnk55" id="link_CollateralEngine_CSA"><path d="M1440,226.5483 C1440,243.4883 1440,263.1483 1440,280.1683" fill="none" id="CollateralEngine-to-CSA" style="stroke:#181818;stroke-width:1;"/><polygon fill="#181818" points="1440,286.1683,1444,277.1683,1440,281.1683,1436,277.1683,1440,286.1683" style="stroke:#181818;stroke-width:1;"/></g><!--link CollateralEngine to ExposureCube--><g class="link" data-entity-1="CollateralEngine" data-entity-2="ExposureCube" data-source-line="80" data-uid="lnk56" id="link_CollateralEngine_ExposureCube"><path d="M1472.66,226.8583 C1487.51,234.5583 1505.42,243.4183 1522,250.4583 C1553.27,263.7383 1583.4061,274.5162 1612.4161,284.1562" fill="none" id="CollateralEngine-to-ExposureCube" style="stroke:#181818;stroke-width:1;"/><polygon fill="#181818" points="1618.11,286.0483,1610.8306,279.4143,1613.3651,284.4716,1608.3078,287.0061,1618.11,286.0483" style="stroke:#181818;stroke-width:1;"/></g><!--link ExposureMetrics to ExposureCube--><g class="link" data-entity-1="ExposureMetrics" data-entity-2="ExposureCube" data-source-line="82" data-uid="lnk57" id="link_ExposureMetrics_ExposureCube"><path d="M1618.47,226.5483 C1630.66,243.4883 1645.625,264.2785 1657.875,281.2985" fill="none" id="ExposureMetrics-to-ExposureCube" style="stroke:#181818;stroke-width:1;"/><polygon fill="#181818" points="1661.38,286.1683,1659.369,276.5269,1658.4592,282.1101,1652.876,281.2002,1661.38,286.1683" style="stroke:#181818;stroke-width:1;"/></g><!--link XVAEngine to ExposureCube--><g class="link" data-entity-1="XVAEngine" data-entity-2="ExposureCube" data-source-line="83" data-uid="lnk58" id="link_XVAEngine_ExposureCube"><path d="M1739.33,226.5483 C1724.98,243.4883 1707.137,264.5691 1692.727,281.5891" fill="none" id="XVAEngine-to-ExposureCube" style="stroke:#181818;stroke-width:1;"/><polygon fill="#181818" points="1688.85,286.1683,1697.7183,281.8841,1692.0808,282.3523,1691.6127,276.7148,1688.85,286.1683" style="stroke:#181818;stroke-width:1;"/></g><!--link Backtest to RiskFactorCube--><g class="link" data-entity-1="Backtest" data-entity-2="RiskFactorCube" data-source-line="85" data-uid="lnk59" id="link_Backtest_RiskFactorCube"><path d="M2433.81,226.8983 C2419.23,235.7283 2400.35,245.5583 2382,250.4583 C2272.11,279.7883 1472.66,282.1883 1359,286.4583 C1228.04,291.3883 1080.7149,297.3911 996.8049,300.8511" fill="none" id="Backtest-to-RiskFactorCube" style="stroke:#181818;stroke-width:1;"/><polygon fill="#181818" points="990.81,301.0983,999.9672,304.7241,995.8058,300.8923,999.6376,296.7309,990.81,301.0983" style="stroke:#181818;stroke-width:1;"/></g><!--link Backtest to ExposureCube--><g class="link" data-entity-1="Backtest" data-entity-2="ExposureCube" data-source-line="86" data-uid="lnk60" id="link_Backtest_ExposureCube"><path d="M2433.39,226.8783 C2418.84,235.5983 2400.13,245.3183 2382,250.4583 C2150.17,316.2283 2081.11,266.0783 1841,286.4583 C1805.13,289.5083 1770.9753,292.9837 1739.0453,296.4337" fill="none" id="Backtest-to-ExposureCube" style="stroke:#181818;stroke-width:1;"/><polygon fill="#181818" points="1733.08,297.0783,1742.4576,300.0883,1738.0511,296.5412,1741.5982,292.1346,1733.08,297.0783" style="stroke:#181818;stroke-width:1;"/></g><!--link Backtest to StatsTests--><g class="link" data-entity-1="Backtest" data-entity-2="StatsTests" data-source-line="87" data-uid="lnk61" id="link_Backtest_StatsTests"><path d="M2461.28,226.5483 C2462.54,243.4883 2463.997,263.1647 2465.257,280.1847" fill="none" id="Backtest-to-StatsTests" style="stroke:#181818;stroke-width:1;"/><polygon fill="#181818" points="2465.7,286.1683,2469.0246,276.8975,2465.3309,281.1819,2461.0465,277.4882,2465.7,286.1683" style="stroke:#181818;stroke-width:1;"/></g><!--link PricerBenchmark to PricingEngine--><g class="link" data-entity-1="PricerBenchmark" data-entity-2="PricingEngine" data-source-line="88" data-uid="lnk62" id="link_PricerBenchmark_PricingEngine"><path d="M2567.97,226.8583 C2552.58,234.8283 2533.67,243.9183 2516,250.4583 C2466.46,268.8083 2413.8511,281.9849 2371.8811,291.1749" fill="none" id="PricerBenchmark-to-PricingEngine" style="stroke:#181818;stroke-width:1;"/><polygon fill="#181818" points="2366.02,292.4583,2375.6673,294.4406,2370.9043,291.3888,2373.9561,286.6258,2366.02,292.4583" style="stroke:#181818;stroke-width:1;"/></g><!--link ReportExporter to ExposureCube--><g class="link" data-entity-1="ReportExporter" data-entity-2="ExposureCube" data-source-line="90" data-uid="lnk63" id="link_ReportExporter_ExposureCube"><path d="M1136.43,226.7783 C1151.15,235.3483 1169.94,244.9683 1188,250.4583 C1228,262.6183 1488.2542,287.0602 1608.8542,297.9202" fill="none" id="ReportExporter-to-ExposureCube" style="stroke:#181818;stroke-width:1;"/><polygon fill="#181818" points="1614.83,298.4583,1606.225,293.6672,1609.8501,298.0098,1605.5075,301.635,1614.83,298.4583" style="stroke:#181818;stroke-width:1;"/></g><!--link ReportExporter to RiskFactorCube--><g class="link" data-entity-1="ReportExporter" data-entity-2="RiskFactorCube" data-source-line="91" data-uid="lnk64" id="link_ReportExporter_RiskFactorCube"><path d="M1075.38,226.7683 C1042.97,243.6883 999.5189,266.3717 967.0689,283.3117" fill="none" id="ReportExporter-to-RiskFactorCube" style="stroke:#181818;stroke-width:1;"/><polygon fill="#181818" points="961.75,286.0883,971.5794,285.4692,966.1824,283.7744,967.8772,278.3774,961.75,286.0883" style="stroke:#181818;stroke-width:1;"/></g><!--SRC=[XLJ1Rjim3BtxAuGUUZFs0yE0r4dR0GiQ94KtOCX1SnX7i2m5j9nr6FRleoqdbcHfkmGm-VX8FJx622E1VNjRi0-iABRqktbSiPMgX0AMisTHdTWNk81a2onFma1fEeGiQskXpXnvmqhTdBK2PNRc5r4X8RYg967ElAnv1UokqEeegWwv4LhTiTyPOz-tdRBXVVR7WRvG5sYD1xNJK842tFU1hnhhezG_rrnH4VeCQuur6BRaXe_rDj87LkeYKAk6fjtxcPtki8I0IHz0jkoUxKJJIMzuqTQFl3GQ1yp0LMX4iAWfE5KkKLp6yLz50qye3dkVgkX-10DyLgH4rq_RJx51KGfLZIDCkO5cez4SjHJQVbae2MpWtRWXgwLVqgT25GijQMv0BgdpegeGAbU0OhSO7ts5ESIhzxDkoINsGKvW3OPQjKECB7SjSVk-SIaEGoVg-q1HGswONdsDM74DD-qhVRMt5m8-W2fF3UtLvzt2cPux4TdlVZ0qurgMkdm2iXYdNGp5ll5Odd_oR1jB9wmMWywj4KFDbXG3pRSGGyss40CvQucb9_sZuWIYPWazsCSyZnrVDXTb90xlBGMS7s4AEHtX_vjQ8sUpPLYSUua9Y7ETAOH_dlz6tUuw0GidJy3yEytcDXerxMyzbGmvGfF5K8x9uYGtboMU4-G3zY3h_alC_YEYucUXaQDjefXmrBy0]--></g></svg>