<svg xmlns="http://www.w3.org/2000/svg" xmlns:xlink="http://www.w3.org/1999/xlink" contentStyleType="text/css" data-diagram-type="SEQUENCE" height="806px" preserveAspectRatio="none" style="width:1396px;height:806px;background:#FFFFFF;" version="1.1" viewBox="0 0 1396 806" width="1396px" zoomAndPan="magnify"><title>XVA / PFE Run - Orchestration Flow</title><defs/><g><text fill="#000000" font-family="sans-serif" font-size="14" font-weight="bold" lengthAdjust="spacing" textLength="259.9502" x="567.2209" y="28.5352">XVA / PFE Run - Orchestration Flow</text><g><title>User</title><rect fill="#000000" fill-opacity="0.00000" height="606.2109" width="8" x="19.1826" y="118.9766"/><line style="stroke:#181818;stroke-width:0.5;stroke-dasharray:5,5;" x1="23" x2="23" y1="118.9766" y2="725.1875"/></g><g><title>EngineRunner</title><rect fill="#000000" fill-opacity="0.00000" height="606.2109" width="8" x="184.0942" y="118.9766"/><line style="stroke:#181818;stroke-width:0.5;stroke-dasharray:5,5;" x1="187.1006" x2="187.1006" y1="118.9766" y2="725.1875"/></g><g><title>ConfigLoader</title><rect fill="#000000" fill-opacity="0.00000" height="606.2109" width="8" x="354.6553" y="118.9766"/><line style="stroke:#181818;stroke-width:0.5;stroke-dasharray:5,5;" x1="358.1382" x2="358.1382" y1="118.9766" y2="725.1875"/></g><g><title>MarketDataSource</title><rect fill="#000000" fill-opacity="0.00000" height="606.2109" width="8" x="485.8975" y="118.9766"/><line style="stroke:#181818;stroke-width:0.5;stroke-dasharray:5,5;" x1="489.1724" x2="489.1724" y1="118.9766" y2="725.1875"/></g><g><title>SimulationDriver</title><rect fill="#000000" fill-opacity="0.00000" height="606.2109" width="8" x="627.9883" y="118.9766"/><line style="stroke:#181818;stroke-width:0.5;stroke-dasharray:5,5;" x1="631.6226" x2="631.6226" y1="118.9766" y2="725.1875"/></g><g><title>PortfolioPricer</title><rect fill="#000000" fill-opacity="0.00000" height="606.2109" width="8" x="756.332" y="118.9766"/><line style="stroke:#181818;stroke-width:0.5;stroke-dasharray:5,5;" x1="759.354" x2="759.354" y1="118.9766" y2="725.1875"/></g><g><title>CollateralEngine</title><rect fill="#000000" fill-opacity="0.00000" height="606.2109" width="8" x="883.4077" y="118.9766"/><line style="stroke:#181818;stroke-width:0.5;stroke-dasharray:5,5;" x1="887.3101" x2="887.3101" y1="118.9766" y2="725.1875"/></g><g><title>ExposureMetrics</title><rect fill="#000000" fill-opacity="0.00000" height="606.2109" width="8" x="1018.5635" y="118.9766"/><line style="stroke:#181818;stroke-width:0.5;stroke-dasharray:5,5;" x1="1022.5054" x2="1022.5054" y1="118.9766" y2="725.1875"/></g><g><title>XVAEngine</title><rect fill="#000000" fill-opacity="0.00000" height="606.2109" width="8" x="1135.1802" y="118.9766"/><line style="stroke:#181818;stroke-width:0.5;stroke-dasharray:5,5;" x1="1138.6216" x2="1138.6216" y1="118.9766" y2="725.1875"/></g><g><title>Backtest</title><rect fill="#000000" fill-opacity="0.00000" height="606.2109" width="8" x="1224.0122" y="118.9766"/><line style="stroke:#181818;stroke-width:0.5;stroke-dasharray:5,5;" x1="1227.7388" x2="1227.7388" y1="118.9766" y2="725.1875"/></g><g><title>ReportExporter</title><rect fill="#000000" fill-opacity="0.00000" height="606.2109" width="8" x="1327.8389" y="118.9766"/><line style="stroke:#181818;stroke-width:0.5;stroke-dasharray:5,5;" x1="1331.2856" x2="1331.2856" y1="118.9766" y2="725.1875"/></g><g class="participant participant-head" data-participant="User"><text fill="#000000" font-family="sans-serif" font-size="14" lengthAdjust="spacing" textLength="30.3652" x="5" y="116.0234">User</text><ellipse cx="23.1826" cy="50.9883" fill="#E2E2F0" rx="8" ry="8" style="stroke:#181818;stroke-width:0.5;"/><path d="M23.1826,58.9883 L23.1826,85.9883 M10.1826,66.9883 L36.1826,66.9883 M23.1826,85.9883 L10.1826,100.9883 M23.1826,85.9883 L36.1826,100.9883" fill="none" style="stroke:#181818;stroke-width:0.5;"/></g><g class="participant participant-tail" data-participant="User"><text fill="#000000" font-family="sans-serif" font-size="14" lengthAdjust="spacing" textLength="30.3652" x="5" y="737.7227">User</text><ellipse cx="23.1826" cy="749.1758" fill="#E2E2F0" rx="8" ry="8" style="stroke:#181818;stroke-width:0.5;"/><path d="M23.1826,757.1758 L23.1826,784.1758 M10.1826,765.1758 L36.1826,765.1758 M23.1826,784.1758 L10.1826,799.1758 M23.1826,784.1758 L36.1826,799.1758" fill="none" style="stroke:#181818;stroke-width:0.5;"/></g><g class="participant participant-head" data-participant="EngineRunner"><rect fill="#E2E2F0" height="30.4883" rx="2.5" ry="2.5" style="stroke:#181818;stroke-width:0.5;" width="107.9873" x="134.1006" y="87.4883"/><text fill="#000000" font-family="sans-serif" font-size="14" lengthAdjust="spacing" textLength="93.9873" x="141.1006" y="108.0234">EngineRunner</text></g><g class="participant participant-tail" data-participant="EngineRunner"><rect fill="#E2E2F0" height="30.4883" rx="2.5" ry="2.5" style="stroke:#181818;stroke-width:0.5;" width="107.9873" x="134.1006" y="724.1875"/><text fill="#000000" font-family="sans-serif" font-size="14" lengthAdjust="spacing" textLength="93.9873" x="141.1006" y="744.7227">EngineRunner</text></g><g class="participant participant-head" data-participant="ConfigLoader"><rect fill="#E2E2F0" height="30.4883" rx="2.5" ry="2.5" style="stroke:#181818;stroke-width:0.5;" width="105.0342" x="306.1382" y="87.4883"/><text fill="#000000" font-family="sans-serif" font-size="14" lengthAdjust="spacing" textLength="91.0342" x="313.1382" y="108.0234">ConfigLoader</text></g><g class="participant participant-tail" data-participant="ConfigLoader"><rect fill="#E2E2F0" height="30.4883" rx="2.5" ry="2.5" style="stroke:#181818;stroke-width:0.5;" width="105.0342" x="306.1382" y="724.1875"/><text fill="#000000" font-family="sans-serif" font-size="14" lengthAdjust="spacing" textLength="91.0342" x="313.1382" y="744.7227">ConfigLoader</text></g><g class="participant participant-head" data-participant="MarketDataSource"><rect fill="#E2E2F0" height="30.4883" rx="2.5" ry="2.5" style="stroke:#181818;stroke-width:0.5;" width="137.4502" x="421.1724" y="87.4883"/><text fill="#000000" font-family="sans-serif" font-size="14" lengthAdjust="spacing" textLength="123.4502" x="428.1724" y="108.0234">MarketDataSource</text></g><g class="participant participant-tail" data-participant="MarketDataSource"><rect fill="#E2E2F0" height="30.4883" rx="2.5" ry="2.5" style="stroke:#181818;stroke-width:0.5;" width="137.4502" x="421.1724" y="724.1875"/><text fill="#000000" font-family="sans-serif" font-size="14" lengthAdjust="spacing" textLength="123.4502" x="428.1724" y="744.7227">MarketDataSource</text></g><g class="participant participant-head" data-participant="SimulationDriver"><rect fill="#E2E2F0" height="30.4883" rx="2.5" ry="2.5" style="stroke:#181818;stroke-width:0.5;" width="126.7314" x="568.6226" y="87.4883"/><text fill="#000000" font-family="sans-serif" font-size="14" lengthAdjust="spacing" textLength="112.7314" x="575.6226" y="108.0234">SimulationDriver</text></g><g class="participant participant-tail" data-participant="SimulationDriver"><rect fill="#E2E2F0" height="30.4883" rx="2.5" ry="2.5" style="stroke:#181818;stroke-width:0.5;" width="126.7314" x="568.6226" y="724.1875"/><text fill="#000000" font-family="sans-serif" font-size="14" lengthAdjust="spacing" textLength="112.7314" x="575.6226" y="744.7227">SimulationDriver</text></g><g class="participant participant-head" data-participant="PortfolioPricer"><rect fill="#E2E2F0" height="30.4883" rx="2.5" ry="2.5" style="stroke:#181818;stroke-width:0.5;" width="109.9561" x="705.354" y="87.4883"/><text fill="#000000" font-family="sans-serif" font-size="14" lengthAdjust="spacing" textLength="95.9561" x="712.354" y="108.0234">PortfolioPricer</text></g><g class="participant participant-tail" data-participant="PortfolioPricer"><rect fill="#E2E2F0" height="30.4883" rx="2.5" ry="2.5" style="stroke:#181818;stroke-width:0.5;" width="109.9561" x="705.354" y="724.1875"/><text fill="#000000" font-family="sans-serif" font-size="14" lengthAdjust="spacing" textLength="95.9561" x="712.354" y="744.7227">PortfolioPricer</text></g><g class="participant participant-head" data-participant="CollateralEngine"><rect fill="#E2E2F0" height="30.4883" rx="2.5" ry="2.5" style="stroke:#181818;stroke-width:0.5;" width="124.1953" x="825.3101" y="87.4883"/><text fill="#000000" font-family="sans-serif" font-size="14" lengthAdjust="spacing" textLength="110.1953" x="832.3101" y="108.0234">CollateralEngine</text></g><g class="participant participant-tail" data-participant="CollateralEngine"><rect fill="#E2E2F0" height="30.4883" rx="2.5" ry="2.5" style="stroke:#181818;stroke-width:0.5;" width="124.1953" x="825.3101" y="724.1875"/><text fill="#000000" font-family="sans-serif" font-size="14" lengthAdjust="spacing" textLength="110.1953" x="832.3101" y="744.7227">CollateralEngine</text></g><g class="participant participant-head" data-participant="ExposureMetrics"><rect fill="#E2E2F0" height="30.4883" rx="2.5" ry="2.5" style="stroke:#181818;stroke-width:0.5;" width="126.1162" x="959.5054" y="87.4883"/><text fill="#000000" font-family="sans-serif" font-size="14" lengthAdjust="spacing" textLength="112.1162" x="966.5054" y="108.0234">ExposureMetrics</text></g><g class="participant participant-tail" data-participant="ExposureMetrics"><rect fill="#E2E2F0" height="30.4883" rx="2.5" ry="2.5" style="stroke:#181818;stroke-width:0.5;" width="126.1162" x="959.5054" y="724.1875"/><text fill="#000000" font-family="sans-serif" font-size="14" lengthAdjust="spacing" textLength="112.1162" x="966.5054" y="744.7227">ExposureMetrics</text></g><g class="participant participant-head" data-participant="XVAEngine"><rect fill="#E2E2F0" height="30.4883" rx="2.5" ry="2.5" style="stroke:#181818;stroke-width:0.5;" width="87.1172" x="1095.6216" y="87.4883"/><text fill="#000000" font-family="sans-serif" font-size="14" lengthAdjust="spacing" textLength="73.1172" x="1102.6216" y="108.0234">XVAEngine</text></g><g class="participant participant-tail" data-participant="XVAEngine"><rect fill="#E2E2F0" height="30.4883" rx="2.5" ry="2.5" style="stroke:#181818;stroke-width:0.5;" width="87.1172" x="1095.6216" y="724.1875"/><text fill="#000000" font-family="sans-serif" font-size="14" lengthAdjust="spacing" textLength="73.1172" x="1102.6216" y="744.7227">XVAEngine</text></g><g class="participant participant-head" data-participant="Backtest"><rect fill="#E2E2F0" height="30.4883" rx="2.5" ry="2.5" style="stroke:#181818;stroke-width:0.5;" width="70.5469" x="1192.7388" y="87.4883"/><text fill="#000000" font-family="sans-serif" font-size="14" lengthAdjust="spacing" textLength="56.5469" x="1199.7388" y="108.0234">Backtest</text></g><g class="participant participant-tail" data-participant="Backtest"><rect fill="#E2E2F0" height="30.4883" rx="2.5" ry="2.5" style="stroke:#181818;stroke-width:0.5;" width="70.5469" x="1192.7388" y="724.1875"/><text fill="#000000" font-family="sans-serif" font-size="14" lengthAdjust="spacing" textLength="56.5469" x="1199.7388" y="744.7227">Backtest</text></g><g class="participant participant-head" data-participant="ReportExporter"><rect fill="#E2E2F0" height="30.4883" rx="2.5" ry="2.5" style="stroke:#181818;stroke-width:0.5;" width="117.1064" x="1273.2856" y="87.4883"/><text fill="#000000" font-family="sans-serif" font-size="14" lengthAdjust="spacing" textLength="103.1064" x="1280.2856" y="108.0234">ReportExporter</text></g><g class="participant participant-tail" data-participant="ReportExporter"><rect fill="#E2E2F0" height="30.4883" rx="2.5" ry="2.5" style="stroke:#181818;stroke-width:0.5;" width="117.1064" x="1273.2856" y="724.1875"/><text fill="#000000" font-family="sans-serif" font-size="14" lengthAdjust="spacing" textLength="103.1064" x="1280.2856" y="744.7227">ReportExporter</text></g><g class="message" data-participant-1="User" data-participant-2="EngineRunner"><polygon fill="#181818" points="176.0942,146.2871,186.0942,150.2871,176.0942,154.2871,180.0942,150.2871" style="stroke:#181818;stroke-width:1;"/><line style="stroke:#181818;stroke-width:1;" x1="23.1826" x2="182.0942" y1="150.2871" y2="150.2871"/><text fill="#000000" font-family="sans-serif" font-size="13" lengthAdjust="spacing" textLength="140.9116" x="30.1826" y="145.5449">run("run_config.yaml")</text></g><g class="message" data-participant-1="EngineRunner" data-participant-2="ConfigLoader"><polygon fill="#181818" points="346.6553,175.5977,356.6553,179.5977,346.6553,183.5977,350.6553,179.5977" style="stroke:#181818;stroke-width:1;"/><line style="stroke:#181818;stroke-width:1;" x1="188.0942" x2="352.6553" y1="179.5977" y2="179.5977"/><text fill="#000000" font-family="sans-serif" font-size="13" lengthAdjust="spacing" textLength="146.561" x="195.0942" y="174.8555">load("run_config.yaml")</text></g><g class="message" data-participant-1="ConfigLoader" data-participant-2="EngineRunner"><polygon fill="#181818" points="199.0942,204.9082,189.0942,208.9082,199.0942,212.9082,195.0942,208.9082" style="stroke:#181818;stroke-width:1;"/><line style="stroke:#181818;stroke-width:1;stroke-dasharray:2,2;" x1="193.0942" x2="357.6553" y1="208.9082" y2="208.9082"/><text fill="#000000" font-family="sans-serif" font-size="13" lengthAdjust="spacing" textLength="66.0474" x="205.0942" y="204.166">RunConfig</text></g><g class="message" data-participant-1="EngineRunner" data-participant-2="MarketDataSource"><polygon fill="#181818" points="477.8975,234.2188,487.8975,238.2188,477.8975,242.2188,481.8975,238.2188" style="stroke:#181818;stroke-width:1;"/><line style="stroke:#181818;stroke-width:1;" x1="188.0942" x2="483.8975" y1="238.2188" y2="238.2188"/><text fill="#000000" font-family="sans-serif" font-size="13" lengthAdjust="spacing" textLength="125.8359" x="195.0942" y="233.4766">get_snapshot(as_of)</text></g><g class="message" data-participant-1="MarketDataSource" data-participant-2="EngineRunner"><polygon fill="#181818" points="199.0942,263.5293,189.0942,267.5293,199.0942,271.5293,195.0942,267.5293" style="stroke:#181818;stroke-width:1;"/><line style="stroke:#181818;stroke-width:1;stroke-dasharray:2,2;" x1="193.0942" x2="488.8975" y1="267.5293" y2="267.5293"/><text fill="#000000" font-family="sans-serif" font-size="13" lengthAdjust="spacing" textLength="151.6392" x="205.0942" y="262.7871">MarketDataEnvironment</text></g><g class="message" data-participant-1="EngineRunner" data-participant-2="SimulationDriver"><polygon fill="#181818" points="619.9883,292.8398,629.9883,296.8398,619.9883,300.8398,623.9883,296.8398" style="stroke:#181818;stroke-width:1;"/><line style="stroke:#181818;stroke-width:1;" x1="188.0942" x2="625.9883" y1="296.8398" y2="296.8398"/><text fill="#000000" font-family="sans-serif" font-size="13" lengthAdjust="spacing" textLength="234.2349" x="195.0942" y="292.0977">run(models, corr, time_grid, sim_cfg)</text></g><g class="message" data-participant-1="SimulationDriver" data-participant-2="EngineRunner"><polygon fill="#181818" points="199.0942,322.1504,189.0942,326.1504,199.0942,330.1504,195.0942,326.1504" style="stroke:#181818;stroke-width:1;"/><line style="stroke:#181818;stroke-width:1;stroke-dasharray:2,2;" x1="193.0942" x2="630.9883" y1="326.1504" y2="326.1504"/><text fill="#000000" font-family="sans-serif" font-size="13" lengthAdjust="spacing" textLength="97.665" x="205.0942" y="321.4082">RiskFactorCube</text></g><g class="message" data-participant-1="EngineRunner" data-participant-2="PortfolioPricer"><polygon fill="#181818" points="748.332,351.4609,758.332,355.4609,748.332,359.4609,752.332,355.4609" style="stroke:#181818;stroke-width:1;"/><line style="stroke:#181818;stroke-width:1;" x1="188.0942" x2="754.332" y1="355.4609" y2="355.4609"/><text fill="#000000" font-family="sans-serif" font-size="13" lengthAdjust="spacing" textLength="360.3945" x="195.0942" y="350.7188">price_on_cube(portfolio, RiskFactorCube, PricingContext)</text></g><g class="message" data-participant-1="PortfolioPricer" data-participant-2="EngineRunner"><polygon fill="#181818" points="199.0942,380.7715,189.0942,384.7715,199.0942,388.7715,195.0942,384.7715" style="stroke:#181818;stroke-width:1;"/><line style="stroke:#181818;stroke-width:1;stroke-dasharray:2,2;" x1="193.0942" x2="759.332" y1="384.7715" y2="384.7715"/><text fill="#000000" font-family="sans-serif" font-size="13" lengthAdjust="spacing" textLength="203.144" x="205.0942" y="380.0293">ExposureCube (uncollateralised)</text></g><g class="message" data-participant-1="EngineRunner" data-participant-2="CollateralEngine"><polygon fill="#181818" points="875.4077,410.082,885.4077,414.082,875.4077,418.082,879.4077,414.082" style="stroke:#181818;stroke-width:1;"/><line style="stroke:#181818;stroke-width:1;" x1="188.0942" x2="881.4077" y1="414.082" y2="414.082"/><text fill="#000000" font-family="sans-serif" font-size="13" lengthAdjust="spacing" textLength="193.6353" x="195.0942" y="409.3398">apply_csa(ExposureCube, CSA)</text></g><g class="message" data-participant-1="CollateralEngine" data-participant-2="EngineRunner"><polygon fill="#181818" points="199.0942,439.3926,189.0942,443.3926,199.0942,447.3926,195.0942,443.3926" style="stroke:#181818;stroke-width:1;"/><line style="stroke:#181818;stroke-width:1;stroke-dasharray:2,2;" x1="193.0942" x2="886.4077" y1="443.3926" y2="443.3926"/><text fill="#000000" font-family="sans-serif" font-size="13" lengthAdjust="spacing" textLength="187.0083" x="205.0942" y="438.6504">ExposureCube (collateralised)</text></g><g class="message" data-participant-1="EngineRunner" data-participant-2="ExposureMetrics"><polygon fill="#181818" points="1010.5635,468.7031,1020.5635,472.7031,1010.5635,476.7031,1014.5635,472.7031" style="stroke:#181818;stroke-width:1;"/><line style="stroke:#181818;stroke-width:1;" x1="188.0942" x2="1016.5635" y1="472.7031" y2="472.7031"/><text fill="#000000" font-family="sans-serif" font-size="13" lengthAdjust="spacing" textLength="166.9814" x="195.0942" y="467.9609">compute_EE/EPE/EEPE/PFE</text></g><g class="message" data-participant-1="ExposureMetrics" data-participant-2="EngineRunner"><polygon fill="#181818" points="199.0942,498.0137,189.0942,502.0137,199.0942,506.0137,195.0942,502.0137" style="stroke:#181818;stroke-width:1;"/><line style="stroke:#181818;stroke-width:1;stroke-dasharray:2,2;" x1="193.0942" x2="1021.5635" y1="502.0137" y2="502.0137"/><text fill="#000000" font-family="sans-serif" font-size="13" lengthAdjust="spacing" textLength="149.5127" x="205.0942" y="497.2715">ExposureMetricsResults</text></g><g class="message" data-participant-1="EngineRunner" data-participant-2="XVAEngine"><polygon fill="#181818" points="1127.1802,527.3242,1137.1802,531.3242,1127.1802,535.3242,1131.1802,531.3242" style="stroke:#181818;stroke-width:1;"/><line style="stroke:#181818;stroke-width:1;" x1="188.0942" x2="1133.1802" y1="531.3242" y2="531.3242"/><text fill="#000000" font-family="sans-serif" font-size="13" lengthAdjust="spacing" textLength="301.7549" x="195.0942" y="526.582">compute_XVA(CollateralisedCube, PD/LGD/etc.)</text></g><g class="message" data-participant-1="XVAEngine" data-participant-2="EngineRunner"><polygon fill="#181818" points="199.0942,556.6348,189.0942,560.6348,199.0942,564.6348,195.0942,560.6348" style="stroke:#181818;stroke-width:1;"/><line style="stroke:#181818;stroke-width:1;stroke-dasharray:2,2;" x1="193.0942" x2="1138.1802" y1="560.6348" y2="560.6348"/><text fill="#000000" font-family="sans-serif" font-size="13" lengthAdjust="spacing" textLength="71.0112" x="205.0942" y="555.8926">XVAResults</text></g><g class="message" data-participant-1="EngineRunner" data-participant-2="Backtest"><polygon fill="#181818" points="1216.0122,585.9453,1226.0122,589.9453,1216.0122,593.9453,1220.0122,589.9453" style="stroke:#181818;stroke-width:1;"/><line style="stroke:#181818;stroke-width:1;" x1="188.0942" x2="1222.0122" y1="589.9453" y2="589.9453"/><text fill="#000000" font-family="sans-serif" font-size="13" lengthAdjust="spacing" textLength="29.9102" x="195.0942" y="585.2031">run()</text></g><g class="message" data-participant-1="Backtest" data-participant-2="EngineRunner"><polygon fill="#181818" points="199.0942,615.2559,189.0942,619.2559,199.0942,623.2559,195.0942,619.2559" style="stroke:#181818;stroke-width:1;"/><line style="stroke:#181818;stroke-width:1;stroke-dasharray:2,2;" x1="193.0942" x2="1227.0122" y1="619.2559" y2="619.2559"/><text fill="#000000" font-family="sans-serif" font-size="13" lengthAdjust="spacing" textLength="97.9126" x="205.0942" y="614.5137">BacktestResults</text></g><g class="message" data-participant-1="EngineRunner" data-participant-2="ReportExporter"><polygon fill="#181818" points="1319.8389,644.5664,1329.8389,648.5664,1319.8389,652.5664,1323.8389,648.5664" style="stroke:#181818;stroke-width:1;"/><line style="stroke:#181818;stroke-width:1;" x1="188.0942" x2="1325.8389" y1="648.5664" y2="648.5664"/><text fill="#000000" font-family="sans-serif" font-size="13" lengthAdjust="spacing" textLength="274.7583" x="195.0942" y="643.8242">export_exposure/exposure_metrics/xva(...)</text></g><g class="message" data-participant-1="ReportExporter" data-participant-2="EngineRunner"><polygon fill="#181818" points="199.0942,673.877,189.0942,677.877,199.0942,681.877,195.0942,677.877" style="stroke:#181818;stroke-width:1;"/><line style="stroke:#181818;stroke-width:1;stroke-dasharray:2,2;" x1="193.0942" x2="1330.8389" y1="677.877" y2="677.877"/><text fill="#000000" font-family="sans-serif" font-size="13" lengthAdjust="spacing" textLength="91.8379" x="205.0942" y="673.1348">Files / Reports</text></g><g class="message" data-participant-1="EngineRunner" data-participant-2="User"><polygon fill="#181818" points="34.1826,703.1875,24.1826,707.1875,34.1826,711.1875,30.1826,707.1875" style="stroke:#181818;stroke-width:1;"/><line style="stroke:#181818;stroke-width:1;stroke-dasharray:2,2;" x1="28.1826" x2="187.0942" y1="707.1875" y2="707.1875"/><text fill="#000000" font-family="sans-serif" font-size="13" lengthAdjust="spacing" textLength="82.9893" x="40.1826" y="702.4453">RunSummary</text></g><!--SRC=[XLJ1Zfim4BtxAqPx0ec4EuTAsuJqigj6YLhrXbndmbenDhA7DFdx6WZPODZT0nYOz-QDdsSWIGhXp-zdI66xoM7NQ5Z0JolUq97b98s6ZJB_6EE2Z8LV3YshkIKfPCqrGQvBgT7JT11O6NsKvOlXXo3mokq9QSs9xqrZ1Ow2UrargfDTMtaEc5jZwMYKD5ihnKHEUHvQhlgAnaLUQkCQYwz8dkb6CR_t6SPtBaxaBHXzt67jAsYJMQ_4M6i6BBwDFCZ0DZfwyhT2T0uihxnIJp5ZZwYMzMXG1iglSxH752mcOdxj4TFyeSyPb4Y5qxnsRuOYxWfpZ5c8cj5uX-JwBAtH5MgQweL7rpjHcGCgbu0mrYP0iiAYjFAGW9DL8Ovbp4BUt2wbEssw1bmrVt4g7JH61dMx5iQRwV5HFOIJ85C2BK7gqdj8UA6O1PbcQXbwgUL3r6XnRppfy31xpkFEp83NjReMml7eCLa2g_rpU-1Z-9SbV5b0qFsPFukgRWYBF4_phR_Qcnz-5W0_KRuXTkWQHMugUH-gTp7_ALgDIhsTm3fz-R5EaSGoPdVUZBQFVQWtZ6lVSp4RtcVI3A4FSusdF0FidWgyRJqT7eggDo6zd7cqNFhgnymPxOrKwFoVjWTEj3s-_QLqKxrlgehRA_iF]--></g></svg>