<svg xmlns="http://www.w3.org/2000/svg" xmlns:xlink="http://www.w3.org/1999/xlink" contentStyleType="text/css" data-diagram-type="CLASS" height="315px" preserveAspectRatio="none" style="width:2288px;height:315px;background:#FFFFFF;" version="1.1" viewBox="0 0 2288 315" width="2288px" zoomAndPan="magnify"><title>Core API - Main Classes &amp; Relations</title><defs/><g><g class="title" data-source-line="2"><text fill="#000000" font-family="sans-serif" font-size="14" font-weight="bold" lengthAdjust="spacing" textLength="260.3877" x="1006.8844" y="23.5352">Core API - Main Classes &amp; Relations</text></g><!--class RunConfig--><g class="entity" data-entity="RunConfig" data-source-line="4" data-uid="ent0002" id="entity_RunConfig"><rect fill="#F1F1F1" height="48" rx="2.5" ry="2.5" style="stroke:#181818;stroke-width:0.5;" width="103.1279" x="625.04" y="152.4883"/><ellipse cx="640.04" cy="168.4883" fill="#ADD1B2" rx="11" ry="11" style="stroke:#181818;stroke-width:1;"/><path d="M642.5131,174.6313 Q641.9321,174.9302 641.2929,175.0796 Q640.6538,175.229 639.9482,175.229 Q637.4414,175.229 636.1215,173.5771 Q634.8017,171.9253 634.8017,168.8042 Q634.8017,165.6748 636.1215,164.0229 Q637.4414,162.3711 639.9482,162.3711 Q640.6538,162.3711 641.3012,162.5205 Q641.9487,162.6699 642.5131,162.9688 L642.5131,165.6914 Q641.8823,165.1104 641.2888,164.8406 Q640.6953,164.5708 640.0644,164.5708 Q638.7197,164.5708 638.0349,165.6375 Q637.3501,166.7041 637.3501,168.8042 Q637.3501,170.896 638.0349,171.9626 Q638.7197,173.0293 640.0644,173.0293 Q640.6953,173.0293 641.2888,172.7595 Q641.8823,172.4897 642.5131,171.9087 Z " fill="#000000"/><text fill="#000000" font-family="sans-serif" font-size="14" lengthAdjust="spacing" textLength="71.1279" x="654.04" y="173.7793">RunConfig</text><line style="stroke:#181818;stroke-width:0.5;" x1="626.04" x2="727.1679" y1="184.4883" y2="184.4883"/><line style="stroke:#181818;stroke-width:0.5;" x1="626.04" x2="727.1679" y1="192.4883" y2="192.4883"/></g><!--class EngineRunner--><g class="entity" data-entity="EngineRunner" data-source-line="5" data-uid="ent0003" id="entity_EngineRunner"><rect fill="#F1F1F1" height="48" rx="2.5" ry="2.5" style="stroke:#181818;stroke-width:0.5;" width="125.9873" x="1448.61" y="44.4883"/><ellipse cx="1463.61" cy="60.4883" fill="#ADD1B2" rx="11" ry="11" style="stroke:#181818;stroke-width:1;"/><path d="M1466.0831,66.6313 Q1465.5021,66.9302 1464.8629,67.0796 Q1464.2238,67.229 1463.5182,67.229 Q1461.0114,67.229 1459.6915,65.5771 Q1458.3717,63.9253 1458.3717,60.8042 Q1458.3717,57.6748 1459.6915,56.0229 Q1461.0114,54.3711 1463.5182,54.3711 Q1464.2238,54.3711 1464.8712,54.5205 Q1465.5187,54.6699 1466.0831,54.9688 L1466.0831,57.6914 Q1465.4523,57.1104 1464.8588,56.8406 Q1464.2653,56.5708 1463.6344,56.5708 Q1462.2897,56.5708 1461.6049,57.6375 Q1460.9201,58.7041 1460.9201,60.8042 Q1460.9201,62.896 1461.6049,63.9626 Q1462.2897,65.0293 1463.6344,65.0293 Q1464.2653,65.0293 1464.8588,64.7595 Q1465.4523,64.4897 1466.0831,63.9087 Z " fill="#000000"/><text fill="#000000" font-family="sans-serif" font-size="14" lengthAdjust="spacing" textLength="93.9873" x="1477.61" y="65.7793">EngineRunner</text><line style="stroke:#181818;stroke-width:0.5;" x1="1449.61" x2="1573.5973" y1="76.4883" y2="76.4883"/><line style="stroke:#181818;stroke-width:0.5;" x1="1449.61" x2="1573.5973" y1="84.4883" y2="84.4883"/></g><!--class MarketDataEnvironment--><g class="entity" data-entity="MarketDataEnvironment" data-source-line="7" data-uid="ent0004" id="entity_MarketDataEnvironment"><rect fill="#F1F1F1" height="48" rx="2.5" ry="2.5" style="stroke:#181818;stroke-width:0.5;" width="195.3037" x="762.95" y="152.4883"/><ellipse cx="777.95" cy="168.4883" fill="#ADD1B2" rx="11" ry="11" style="stroke:#181818;stroke-width:1;"/><path d="M780.4231,174.6313 Q779.8421,174.9302 779.2029,175.0796 Q778.5638,175.229 777.8582,175.229 Q775.3514,175.229 774.0315,173.5771 Q772.7117,171.9253 772.7117,168.8042 Q772.7117,165.6748 774.0315,164.0229 Q775.3514,162.3711 777.8582,162.3711 Q778.5638,162.3711 779.2112,162.5205 Q779.8587,162.6699 780.4231,162.9688 L780.4231,165.6914 Q779.7923,165.1104 779.1988,164.8406 Q778.6053,164.5708 777.9744,164.5708 Q776.6297,164.5708 775.9449,165.6375 Q775.2601,166.7041 775.2601,168.8042 Q775.2601,170.896 775.9449,171.9626 Q776.6297,173.0293 777.9744,173.0293 Q778.6053,173.0293 779.1988,172.7595 Q779.7923,172.4897 780.4231,171.9087 Z " fill="#000000"/><text fill="#000000" font-family="sans-serif" font-size="14" lengthAdjust="spacing" textLength="163.3037" x="791.95" y="173.7793">MarketDataEnvironment</text><line style="stroke:#181818;stroke-width:0.5;" x1="763.95" x2="957.2537" y1="184.4883" y2="184.4883"/><line style="stroke:#181818;stroke-width:0.5;" x1="763.95" x2="957.2537" y1="192.4883" y2="192.4883"/></g><!--class MarketDataSource--><g class="entity" data-entity="MarketDataSource" data-source-line="8" data-uid="ent0005" id="entity_MarketDataSource"><rect fill="#F1F1F1" height="48" rx="2.5" ry="2.5" style="stroke:#181818;stroke-width:0.5;" width="155.4502" x="992.88" y="152.4883"/><ellipse cx="1007.88" cy="168.4883" fill="#B4A7E5" rx="11" ry="11" style="stroke:#181818;stroke-width:1;"/><path d="M1004.3077,164.7534 L1004.3077,162.5952 L1011.6871,162.5952 L1011.6871,164.7534 L1009.2218,164.7534 L1009.2218,172.8301 L1011.6871,172.8301 L1011.6871,174.9883 L1004.3077,174.9883 L1004.3077,172.8301 L1006.7731,172.8301 L1006.7731,164.7534 Z " fill="#000000"/><text fill="#000000" font-family="sans-serif" font-size="14" font-style="italic" lengthAdjust="spacing" textLength="123.4502" x="1021.88" y="173.7793">MarketDataSource</text><line style="stroke:#181818;stroke-width:0.5;" x1="993.88" x2="1147.3302" y1="184.4883" y2="184.4883"/><line style="stroke:#181818;stroke-width:0.5;" x1="993.88" x2="1147.3302" y1="192.4883" y2="192.4883"/></g><!--class TimeGrid--><g class="entity" data-entity="TimeGrid" data-source-line="10" data-uid="ent0006" id="entity_TimeGrid"><rect fill="#F1F1F1" height="48" rx="2.5" ry="2.5" style="stroke:#181818;stroke-width:0.5;" width="94.4736" x="34.37" y="44.4883"/><ellipse cx="49.37" cy="60.4883" fill="#ADD1B2" rx="11" ry="11" style="stroke:#181818;stroke-width:1;"/><path d="M51.8431,66.6313 Q51.2621,66.9302 50.6229,67.0796 Q49.9838,67.229 49.2782,67.229 Q46.7714,67.229 45.4515,65.5771 Q44.1317,63.9253 44.1317,60.8042 Q44.1317,57.6748 45.4515,56.0229 Q46.7714,54.3711 49.2782,54.3711 Q49.9838,54.3711 50.6312,54.5205 Q51.2787,54.6699 51.8431,54.9688 L51.8431,57.6914 Q51.2123,57.1104 50.6188,56.8406 Q50.0253,56.5708 49.3944,56.5708 Q48.0497,56.5708 47.3649,57.6375 Q46.6801,58.7041 46.6801,60.8042 Q46.6801,62.896 47.3649,63.9626 Q48.0497,65.0293 49.3944,65.0293 Q50.0253,65.0293 50.6188,64.7595 Q51.2123,64.4897 51.8431,63.9087 Z " fill="#000000"/><text fill="#000000" font-family="sans-serif" font-size="14" lengthAdjust="spacing" textLength="62.4736" x="63.37" y="65.7793">TimeGrid</text><line style="stroke:#181818;stroke-width:0.5;" x1="35.37" x2="127.8436" y1="76.4883" y2="76.4883"/><line style="stroke:#181818;stroke-width:0.5;" x1="35.37" x2="127.8436" y1="84.4883" y2="84.4883"/></g><!--class RiskFactorCube--><g class="entity" data-entity="RiskFactorCube" data-source-line="11" data-uid="ent0007" id="entity_RiskFactorCube"><rect fill="#F1F1F1" height="48" rx="2.5" ry="2.5" style="stroke:#181818;stroke-width:0.5;" width="137.1777" x="164.02" y="44.4883"/><ellipse cx="179.02" cy="60.4883" fill="#ADD1B2" rx="11" ry="11" style="stroke:#181818;stroke-width:1;"/><path d="M181.4931,66.6313 Q180.9121,66.9302 180.2729,67.0796 Q179.6338,67.229 178.9282,67.229 Q176.4214,67.229 175.1015,65.5771 Q173.7817,63.9253 173.7817,60.8042 Q173.7817,57.6748 175.1015,56.0229 Q176.4214,54.3711 178.9282,54.3711 Q179.6338,54.3711 180.2812,54.5205 Q180.9287,54.6699 181.4931,54.9688 L181.4931,57.6914 Q180.8623,57.1104 180.2688,56.8406 Q179.6753,56.5708 179.0444,56.5708 Q177.6997,56.5708 177.0149,57.6375 Q176.3301,58.7041 176.3301,60.8042 Q176.3301,62.896 177.0149,63.9626 Q177.6997,65.0293 179.0444,65.0293 Q179.6753,65.0293 180.2688,64.7595 Q180.8623,64.4897 181.4931,63.9087 Z " fill="#000000"/><text fill="#000000" font-family="sans-serif" font-size="14" lengthAdjust="spacing" textLength="105.1777" x="193.02" y="65.7793">RiskFactorCube</text><line style="stroke:#181818;stroke-width:0.5;" x1="165.02" x2="300.1977" y1="76.4883" y2="76.4883"/><line style="stroke:#181818;stroke-width:0.5;" x1="165.02" x2="300.1977" y1="84.4883" y2="84.4883"/></g><!--class ExposureCube--><g class="entity" data-entity="ExposureCube" data-source-line="12" data-uid="ent0008" id="entity_ExposureCube"><rect fill="#F1F1F1" height="48" rx="2.5" ry="2.5" style="stroke:#181818;stroke-width:0.5;" width="129.9248" x="336.64" y="44.4883"/><ellipse cx="351.64" cy="60.4883" fill="#ADD1B2" rx="11" ry="11" style="stroke:#181818;stroke-width:1;"/><path d="M354.1131,66.6313 Q353.5321,66.9302 352.8929,67.0796 Q352.2538,67.229 351.5482,67.229 Q349.0414,67.229 347.7215,65.5771 Q346.4017,63.9253 346.4017,60.8042 Q346.4017,57.6748 347.7215,56.0229 Q349.0414,54.3711 351.5482,54.3711 Q352.2538,54.3711 352.9012,54.5205 Q353.5487,54.6699 354.1131,54.9688 L354.1131,57.6914 Q353.4823,57.1104 352.8888,56.8406 Q352.2953,56.5708 351.6644,56.5708 Q350.3197,56.5708 349.6349,57.6375 Q348.9501,58.7041 348.9501,60.8042 Q348.9501,62.896 349.6349,63.9626 Q350.3197,65.0293 351.6644,65.0293 Q352.2953,65.0293 352.8888,64.7595 Q353.4823,64.4897 354.1131,63.9087 Z " fill="#000000"/><text fill="#000000" font-family="sans-serif" font-size="14" lengthAdjust="spacing" textLength="97.9248" x="365.64" y="65.7793">ExposureCube</text><line style="stroke:#181818;stroke-width:0.5;" x1="337.64" x2="465.5648" y1="76.4883" y2="76.4883"/><line style="stroke:#181818;stroke-width:0.5;" x1="337.64" x2="465.5648" y1="84.4883" y2="84.4883"/></g><!--class RiskFactorModel--><g class="entity" data-entity="RiskFactorModel" data-source-line="14" data-uid="ent0009" id="entity_RiskFactorModel"><rect fill="#F1F1F1" height="48" rx="2.5" ry="2.5" style="stroke:#181818;stroke-width:0.5;" width="143.5078" x="501.85" y="44.4883"/><ellipse cx="516.85" cy="60.4883" fill="#B4A7E5" rx="11" ry="11" style="stroke:#181818;stroke-width:1;"/><path d="M513.2777,56.7534 L513.2777,54.5952 L520.6571,54.5952 L520.6571,56.7534 L518.1918,56.7534 L518.1918,64.8301 L520.6571,64.8301 L520.6571,66.9883 L513.2777,66.9883 L513.2777,64.8301 L515.7431,64.8301 L515.7431,56.7534 Z " fill="#000000"/><text fill="#000000" font-family="sans-serif" font-size="14" font-style="italic" lengthAdjust="spacing" textLength="111.5078" x="530.85" y="65.7793">RiskFactorModel</text><line style="stroke:#181818;stroke-width:0.5;" x1="502.85" x2="644.3578" y1="76.4883" y2="76.4883"/><line style="stroke:#181818;stroke-width:0.5;" x1="502.85" x2="644.3578" y1="84.4883" y2="84.4883"/></g><!--class CorrelationModel--><g class="entity" data-entity="CorrelationModel" data-source-line="15" data-uid="ent0010" id="entity_CorrelationModel"><rect fill="#F1F1F1" height="48" rx="2.5" ry="2.5" style="stroke:#181818;stroke-width:0.5;" width="149.209" x="7" y="152.4883"/><ellipse cx="22" cy="168.4883" fill="#ADD1B2" rx="11" ry="11" style="stroke:#181818;stroke-width:1;"/><path d="M24.4731,174.6313 Q23.8921,174.9302 23.2529,175.0796 Q22.6138,175.229 21.9082,175.229 Q19.4014,175.229 18.0815,173.5771 Q16.7617,171.9253 16.7617,168.8042 Q16.7617,165.6748 18.0815,164.0229 Q19.4014,162.3711 21.9082,162.3711 Q22.6138,162.3711 23.2612,162.5205 Q23.9087,162.6699 24.4731,162.9688 L24.4731,165.6914 Q23.8423,165.1104 23.2488,164.8406 Q22.6553,164.5708 22.0244,164.5708 Q20.6797,164.5708 19.9949,165.6375 Q19.3101,166.7041 19.3101,168.8042 Q19.3101,170.896 19.9949,171.9626 Q20.6797,173.0293 22.0244,173.0293 Q22.6553,173.0293 23.2488,172.7595 Q23.8423,172.4897 24.4731,171.9087 Z " fill="#000000"/><text fill="#000000" font-family="sans-serif" font-size="14" lengthAdjust="spacing" textLength="117.209" x="36" y="173.7793">CorrelationModel</text><line style="stroke:#181818;stroke-width:0.5;" x1="8" x2="155.209" y1="184.4883" y2="184.4883"/><line style="stroke:#181818;stroke-width:0.5;" x1="8" x2="155.209" y1="192.4883" y2="192.4883"/></g><!--class SimulationDriver--><g class="entity" data-entity="SimulationDriver" data-source-line="16" data-uid="ent0011" id="entity_SimulationDriver"><rect fill="#F1F1F1" height="48" rx="2.5" ry="2.5" style="stroke:#181818;stroke-width:0.5;" width="144.7314" x="1183.24" y="152.4883"/><ellipse cx="1198.24" cy="168.4883" fill="#ADD1B2" rx="11" ry="11" style="stroke:#181818;stroke-width:1;"/><path d="M1200.7131,174.6313 Q1200.1321,174.9302 1199.4929,175.0796 Q1198.8538,175.229 1198.1482,175.229 Q1195.6414,175.229 1194.3215,173.5771 Q1193.0017,171.9253 1193.0017,168.8042 Q1193.0017,165.6748 1194.3215,164.0229 Q1195.6414,162.3711 1198.1482,162.3711 Q1198.8538,162.3711 1199.5012,162.5205 Q1200.1487,162.6699 1200.7131,162.9688 L1200.7131,165.6914 Q1200.0823,165.1104 1199.4888,164.8406 Q1198.8953,164.5708 1198.2644,164.5708 Q1196.9197,164.5708 1196.2349,165.6375 Q1195.5501,166.7041 1195.5501,168.8042 Q1195.5501,170.896 1196.2349,171.9626 Q1196.9197,173.0293 1198.2644,173.0293 Q1198.8953,173.0293 1199.4888,172.7595 Q1200.0823,172.4897 1200.7131,171.9087 Z " fill="#000000"/><text fill="#000000" font-family="sans-serif" font-size="14" lengthAdjust="spacing" textLength="112.7314" x="1212.24" y="173.7793">SimulationDriver</text><line style="stroke:#181818;stroke-width:0.5;" x1="1184.24" x2="1326.9714" y1="184.4883" y2="184.4883"/><line style="stroke:#181818;stroke-width:0.5;" x1="1184.24" x2="1326.9714" y1="192.4883" y2="192.4883"/></g><!--class Instrument--><g class="entity" data-entity="Instrument" data-source-line="18" data-uid="ent0012" id="entity_Instrument"><rect fill="#F1F1F1" height="48" rx="2.5" ry="2.5" style="stroke:#181818;stroke-width:0.5;" width="106.3066" x="191.45" y="152.4883"/><ellipse cx="206.45" cy="168.4883" fill="#A9DCDF" rx="11" ry="11" style="stroke:#181818;stroke-width:1;"/><path d="M206.3133,163.8364 L205.1595,168.9082 L207.4754,168.9082 Z M204.8191,161.5952 L207.8157,161.5952 L211.1609,173.9883 L208.7122,173.9883 L207.9485,170.9253 L204.6697,170.9253 L203.9227,173.9883 L201.4739,173.9883 Z " fill="#000000"/><text fill="#000000" font-family="sans-serif" font-size="14" font-style="italic" lengthAdjust="spacing" textLength="74.3066" x="220.45" y="173.7793">Instrument</text><line style="stroke:#181818;stroke-width:0.5;" x1="192.45" x2="296.7566" y1="184.4883" y2="184.4883"/><line style="stroke:#181818;stroke-width:0.5;" x1="192.45" x2="296.7566" y1="192.4883" y2="192.4883"/></g><!--class Portfolio--><g class="entity" data-entity="Portfolio" data-source-line="19" data-uid="ent0013" id="entity_Portfolio"><rect fill="#F1F1F1" height="48" rx="2.5" ry="2.5" style="stroke:#181818;stroke-width:0.5;" width="89.7432" x="332.73" y="152.4883"/><ellipse cx="347.73" cy="168.4883" fill="#ADD1B2" rx="11" ry="11" style="stroke:#181818;stroke-width:1;"/><path d="M350.2031,174.6313 Q349.6221,174.9302 348.9829,175.0796 Q348.3438,175.229 347.6382,175.229 Q345.1314,175.229 343.8115,173.5771 Q342.4917,171.9253 342.4917,168.8042 Q342.4917,165.6748 343.8115,164.0229 Q345.1314,162.3711 347.6382,162.3711 Q348.3438,162.3711 348.9912,162.5205 Q349.6387,162.6699 350.2031,162.9688 L350.2031,165.6914 Q349.5723,165.1104 348.9788,164.8406 Q348.3853,164.5708 347.7544,164.5708 Q346.4097,164.5708 345.7249,165.6375 Q345.0401,166.7041 345.0401,168.8042 Q345.0401,170.896 345.7249,171.9626 Q346.4097,173.0293 347.7544,173.0293 Q348.3853,173.0293 348.9788,172.7595 Q349.5723,172.4897 350.2031,171.9087 Z " fill="#000000"/><text fill="#000000" font-family="sans-serif" font-size="14" lengthAdjust="spacing" textLength="57.7432" x="361.73" y="173.7793">Portfolio</text><line style="stroke:#181818;stroke-width:0.5;" x1="333.73" x2="421.4732" y1="184.4883" y2="184.4883"/><line style="stroke:#181818;stroke-width:0.5;" x1="333.73" x2="421.4732" y1="192.4883" y2="192.4883"/></g><!--class PricingContext--><g class="entity" data-entity="PricingContext" data-source-line="20" data-uid="ent0014" id="entity_PricingContext"><rect fill="#F1F1F1" height="48" rx="2.5" ry="2.5" style="stroke:#181818;stroke-width:0.5;" width="131.9824" x="457.61" y="152.4883"/><ellipse cx="472.61" cy="168.4883" fill="#ADD1B2" rx="11" ry="11" style="stroke:#181818;stroke-width:1;"/><path d="M475.0831,174.6313 Q474.5021,174.9302 473.8629,175.0796 Q473.2238,175.229 472.5182,175.229 Q470.0114,175.229 468.6915,173.5771 Q467.3717,171.9253 467.3717,168.8042 Q467.3717,165.6748 468.6915,164.0229 Q470.0114,162.3711 472.5182,162.3711 Q473.2238,162.3711 473.8712,162.5205 Q474.5187,162.6699 475.0831,162.9688 L475.0831,165.6914 Q474.4523,165.1104 473.8588,164.8406 Q473.2653,164.5708 472.6344,164.5708 Q471.2897,164.5708 470.6049,165.6375 Q469.9201,166.7041 469.9201,168.8042 Q469.9201,170.896 470.6049,171.9626 Q471.2897,173.0293 472.6344,173.0293 Q473.2653,173.0293 473.8588,172.7595 Q474.4523,172.4897 475.0831,171.9087 Z " fill="#000000"/><text fill="#000000" font-family="sans-serif" font-size="14" lengthAdjust="spacing" textLength="99.9824" x="486.61" y="173.7793">PricingContext</text><line style="stroke:#181818;stroke-width:0.5;" x1="458.61" x2="588.5924" y1="184.4883" y2="184.4883"/><line style="stroke:#181818;stroke-width:0.5;" x1="458.61" x2="588.5924" y1="192.4883" y2="192.4883"/></g><!--class PricingEngine--><g class="entity" data-entity="PricingEngine" data-source-line="21" data-uid="ent0015" id="entity_PricingEngine"><rect fill="#F1F1F1" height="48" rx="2.5" ry="2.5" style="stroke:#181818;stroke-width:0.5;" width="123.6904" x="19.76" y="260.4883"/><ellipse cx="34.76" cy="276.4883" fill="#B4A7E5" rx="11" ry="11" style="stroke:#181818;stroke-width:1;"/><path d="M31.1877,272.7534 L31.1877,270.5952 L38.5671,270.5952 L38.5671,272.7534 L36.1018,272.7534 L36.1018,280.8301 L38.5671,280.8301 L38.5671,282.9883 L31.1877,282.9883 L31.1877,280.8301 L33.6531,280.8301 L33.6531,272.7534 Z " fill="#000000"/><text fill="#000000" font-family="sans-serif" font-size="14" font-style="italic" lengthAdjust="spacing" textLength="91.6904" x="48.76" y="281.7793">PricingEngine</text><line style="stroke:#181818;stroke-width:0.5;" x1="20.76" x2="142.4504" y1="292.4883" y2="292.4883"/><line style="stroke:#181818;stroke-width:0.5;" x1="20.76" x2="142.4504" y1="300.4883" y2="300.4883"/></g><!--class PortfolioPricer--><g class="entity" data-entity="PortfolioPricer" data-source-line="22" data-uid="ent0016" id="entity_PortfolioPricer"><rect fill="#F1F1F1" height="48" rx="2.5" ry="2.5" style="stroke:#181818;stroke-width:0.5;" width="127.9561" x="1362.63" y="152.4883"/><ellipse cx="1377.63" cy="168.4883" fill="#ADD1B2" rx="11" ry="11" style="stroke:#181818;stroke-width:1;"/><path d="M1380.1031,174.6313 Q1379.5221,174.9302 1378.8829,175.0796 Q1378.2438,175.229 1377.5382,175.229 Q1375.0314,175.229 1373.7115,173.5771 Q1372.3917,171.9253 1372.3917,168.8042 Q1372.3917,165.6748 1373.7115,164.0229 Q1375.0314,162.3711 1377.5382,162.3711 Q1378.2438,162.3711 1378.8912,162.5205 Q1379.5387,162.6699 1380.1031,162.9688 L1380.1031,165.6914 Q1379.4723,165.1104 1378.8788,164.8406 Q1378.2853,164.5708 1377.6544,164.5708 Q1376.3097,164.5708 1375.6249,165.6375 Q1374.9401,166.7041 1374.9401,168.8042 Q1374.9401,170.896 1375.6249,171.9626 Q1376.3097,173.0293 1377.6544,173.0293 Q1378.2853,173.0293 1378.8788,172.7595 Q1379.4723,172.4897 1380.1031,171.9087 Z " fill="#000000"/><text fill="#000000" font-family="sans-serif" font-size="14" lengthAdjust="spacing" textLength="95.9561" x="1391.63" y="173.7793">PortfolioPricer</text><line style="stroke:#181818;stroke-width:0.5;" x1="1363.63" x2="1489.5861" y1="184.4883" y2="184.4883"/><line style="stroke:#181818;stroke-width:0.5;" x1="1363.63" x2="1489.5861" y1="192.4883" y2="192.4883"/></g><!--class CSA--><g class="entity" data-entity="CSA" data-source-line="24" data-uid="ent0017" id="entity_CSA"><rect fill="#F1F1F1" height="48" rx="2.5" ry="2.5" style="stroke:#181818;stroke-width:0.5;" width="58.8857" x="178.16" y="260.4883"/><ellipse cx="193.16" cy="276.4883" fill="#ADD1B2" rx="11" ry="11" style="stroke:#181818;stroke-width:1;"/><path d="M195.6331,282.6313 Q195.0521,282.9302 194.4129,283.0796 Q193.7738,283.229 193.0682,283.229 Q190.5614,283.229 189.2415,281.5771 Q187.9217,279.9253 187.9217,276.8042 Q187.9217,273.6748 189.2415,272.0229 Q190.5614,270.3711 193.0682,270.3711 Q193.7738,270.3711 194.4212,270.5205 Q195.0687,270.6699 195.6331,270.9688 L195.6331,273.6914 Q195.0023,273.1104 194.4088,272.8406 Q193.8153,272.5708 193.1844,272.5708 Q191.8397,272.5708 191.1549,273.6375 Q190.4701,274.7041 190.4701,276.8042 Q190.4701,278.896 191.1549,279.9626 Q191.8397,281.0293 193.1844,281.0293 Q193.8153,281.0293 194.4088,280.7595 Q195.0023,280.4897 195.6331,279.9087 Z " fill="#000000"/><text fill="#000000" font-family="sans-serif" font-size="14" lengthAdjust="spacing" textLength="26.8857" x="207.16" y="281.7793">CSA</text><line style="stroke:#181818;stroke-width:0.5;" x1="179.16" x2="236.0457" y1="292.4883" y2="292.4883"/><line style="stroke:#181818;stroke-width:0.5;" x1="179.16" x2="236.0457" y1="300.4883" y2="300.4883"/></g><!--class CollateralEngine--><g class="entity" data-entity="CollateralEngine" data-source-line="25" data-uid="ent0018" id="entity_CollateralEngine"><rect fill="#F1F1F1" height="48" rx="2.5" ry="2.5" style="stroke:#181818;stroke-width:0.5;" width="142.1953" x="1525.51" y="152.4883"/><ellipse cx="1540.51" cy="168.4883" fill="#ADD1B2" rx="11" ry="11" style="stroke:#181818;stroke-width:1;"/><path d="M1542.9831,174.6313 Q1542.4021,174.9302 1541.7629,175.0796 Q1541.1238,175.229 1540.4182,175.229 Q1537.9114,175.229 1536.5915,173.5771 Q1535.2717,171.9253 1535.2717,168.8042 Q1535.2717,165.6748 1536.5915,164.0229 Q1537.9114,162.3711 1540.4182,162.3711 Q1541.1238,162.3711 1541.7712,162.5205 Q1542.4187,162.6699 1542.9831,162.9688 L1542.9831,165.6914 Q1542.3523,165.1104 1541.7588,164.8406 Q1541.1653,164.5708 1540.5344,164.5708 Q1539.1897,164.5708 1538.5049,165.6375 Q1537.8201,166.7041 1537.8201,168.8042 Q1537.8201,170.896 1538.5049,171.9626 Q1539.1897,173.0293 1540.5344,173.0293 Q1541.1653,173.0293 1541.7588,172.7595 Q1542.3523,172.4897 1542.9831,171.9087 Z " fill="#000000"/><text fill="#000000" font-family="sans-serif" font-size="14" lengthAdjust="spacing" textLength="110.1953" x="1554.51" y="173.7793">CollateralEngine</text><line style="stroke:#181818;stroke-width:0.5;" x1="1526.51" x2="1666.7053" y1="184.4883" y2="184.4883"/><line style="stroke:#181818;stroke-width:0.5;" x1="1526.51" x2="1666.7053" y1="192.4883" y2="192.4883"/></g><!--class ExposureMetrics--><g class="entity" data-entity="ExposureMetrics" data-source-line="26" data-uid="ent0019" id="entity_ExposureMetrics"><rect fill="#F1F1F1" height="48" rx="2.5" ry="2.5" style="stroke:#181818;stroke-width:0.5;" width="144.1162" x="1702.55" y="152.4883"/><ellipse cx="1717.55" cy="168.4883" fill="#ADD1B2" rx="11" ry="11" style="stroke:#181818;stroke-width:1;"/><path d="M1720.0231,174.6313 Q1719.4421,174.9302 1718.8029,175.0796 Q1718.1638,175.229 1717.4582,175.229 Q1714.9514,175.229 1713.6315,173.5771 Q1712.3117,171.9253 1712.3117,168.8042 Q1712.3117,165.6748 1713.6315,164.0229 Q1714.9514,162.3711 1717.4582,162.3711 Q1718.1638,162.3711 1718.8112,162.5205 Q1719.4587,162.6699 1720.0231,162.9688 L1720.0231,165.6914 Q1719.3923,165.1104 1718.7988,164.8406 Q1718.2053,164.5708 1717.5744,164.5708 Q1716.2297,164.5708 1715.5449,165.6375 Q1714.8601,166.7041 1714.8601,168.8042 Q1714.8601,170.896 1715.5449,171.9626 Q1716.2297,173.0293 1717.5744,173.0293 Q1718.2053,173.0293 1718.7988,172.7595 Q1719.3923,172.4897 1720.0231,171.9087 Z " fill="#000000"/><text fill="#000000" font-family="sans-serif" font-size="14" lengthAdjust="spacing" textLength="112.1162" x="1731.55" y="173.7793">ExposureMetrics</text><line style="stroke:#181818;stroke-width:0.5;" x1="1703.55" x2="1845.6662" y1="184.4883" y2="184.4883"/><line style="stroke:#181818;stroke-width:0.5;" x1="1703.55" x2="1845.6662" y1="192.4883" y2="192.4883"/></g><!--class XVAEngine--><g class="entity" data-entity="XVAEngine" data-source-line="27" data-uid="ent0020" id="entity_XVAEngine"><rect fill="#F1F1F1" height="48" rx="2.5" ry="2.5" style="stroke:#181818;stroke-width:0.5;" width="105.1172" x="1882.05" y="152.4883"/><ellipse cx="1897.05" cy="168.4883" fill="#ADD1B2" rx="11" ry="11" style="stroke:#181818;stroke-width:1;"/><path d="M1899.5231,174.6313 Q1898.9421,174.9302 1898.3029,175.0796 Q1897.6638,175.229 1896.9582,175.229 Q1894.4514,175.229 1893.1315,173.5771 Q1891.8117,171.9253 1891.8117,168.8042 Q1891.8117,165.6748 1893.1315,164.0229 Q1894.4514,162.3711 1896.9582,162.3711 Q1897.6638,162.3711 1898.3112,162.5205 Q1898.9587,162.6699 1899.5231,162.9688 L1899.5231,165.6914 Q1898.8923,165.1104 1898.2988,164.8406 Q1897.7053,164.5708 1897.0744,164.5708 Q1895.7297,164.5708 1895.0449,165.6375 Q1894.3601,166.7041 1894.3601,168.8042 Q1894.3601,170.896 1895.0449,171.9626 Q1895.7297,173.0293 1897.0744,173.0293 Q1897.7053,173.0293 1898.2988,172.7595 Q1898.8923,172.4897 1899.5231,171.9087 Z " fill="#000000"/><text fill="#000000" font-family="sans-serif" font-size="14" lengthAdjust="spacing" textLength="73.1172" x="1911.05" y="173.7793">XVAEngine</text><line style="stroke:#181818;stroke-width:0.5;" x1="1883.05" x2="1986.1672" y1="184.4883" y2="184.4883"/><line style="stroke:#181818;stroke-width:0.5;" x1="1883.05" x2="1986.1672" y1="192.4883" y2="192.4883"/></g><!--class Backtest--><g class="entity" data-entity="Backtest" data-source-line="29" data-uid="ent0021" id="entity_Backtest"><rect fill="#F1F1F1" height="48" rx="2.5" ry="2.5" style="stroke:#181818;stroke-width:0.5;" width="88.5469" x="2022.33" y="152.4883"/><ellipse cx="2037.33" cy="168.4883" fill="#B4A7E5" rx="11" ry="11" style="stroke:#181818;stroke-width:1;"/><path d="M2033.7577,164.7534 L2033.7577,162.5952 L2041.1371,162.5952 L2041.1371,164.7534 L2038.6718,164.7534 L2038.6718,172.8301 L2041.1371,172.8301 L2041.1371,174.9883 L2033.7577,174.9883 L2033.7577,172.8301 L2036.2231,172.8301 L2036.2231,164.7534 Z " fill="#000000"/><text fill="#000000" font-family="sans-serif" font-size="14" font-style="italic" lengthAdjust="spacing" textLength="56.5469" x="2051.33" y="173.7793">Backtest</text><line style="stroke:#181818;stroke-width:0.5;" x1="2023.33" x2="2109.8769" y1="184.4883" y2="184.4883"/><line style="stroke:#181818;stroke-width:0.5;" x1="2023.33" x2="2109.8769" y1="192.4883" y2="192.4883"/></g><!--class StatsTests--><g class="entity" data-entity="StatsTests" data-source-line="30" data-uid="ent0022" id="entity_StatsTests"><rect fill="#F1F1F1" height="48" rx="2.5" ry="2.5" style="stroke:#181818;stroke-width:0.5;" width="101.043" x="272.08" y="260.4883"/><ellipse cx="287.08" cy="276.4883" fill="#ADD1B2" rx="11" ry="11" style="stroke:#181818;stroke-width:1;"/><path d="M289.5531,282.6313 Q288.9721,282.9302 288.3329,283.0796 Q287.6938,283.229 286.9882,283.229 Q284.4814,283.229 283.1615,281.5771 Q281.8417,279.9253 281.8417,276.8042 Q281.8417,273.6748 283.1615,272.0229 Q284.4814,270.3711 286.9882,270.3711 Q287.6938,270.3711 288.3412,270.5205 Q288.9887,270.6699 289.5531,270.9688 L289.5531,273.6914 Q288.9223,273.1104 288.3288,272.8406 Q287.7353,272.5708 287.1044,272.5708 Q285.7597,272.5708 285.0749,273.6375 Q284.3901,274.7041 284.3901,276.8042 Q284.3901,278.896 285.0749,279.9626 Q285.7597,281.0293 287.1044,281.0293 Q287.7353,281.0293 288.3288,280.7595 Q288.9223,280.4897 289.5531,279.9087 Z " fill="#000000"/><text fill="#000000" font-family="sans-serif" font-size="14" lengthAdjust="spacing" textLength="69.043" x="301.08" y="281.7793">StatsTests</text><line style="stroke:#181818;stroke-width:0.5;" x1="273.08" x2="372.123" y1="292.4883" y2="292.4883"/><line style="stroke:#181818;stroke-width:0.5;" x1="273.08" x2="372.123" y1="300.4883" y2="300.4883"/></g><!--class ReportExporter--><g class="entity" data-entity="ReportExporter" data-source-line="31" data-uid="ent0023" id="entity_ReportExporter"><rect fill="#F1F1F1" height="48" rx="2.5" ry="2.5" style="stroke:#181818;stroke-width:0.5;" width="135.1064" x="2146.05" y="152.4883"/><ellipse cx="2161.05" cy="168.4883" fill="#ADD1B2" rx="11" ry="11" style="stroke:#181818;stroke-width:1;"/><path d="M2163.5231,174.6313 Q2162.9421,174.9302 2162.3029,175.0796 Q2161.6638,175.229 2160.9582,175.229 Q2158.4514,175.229 2157.1315,173.5771 Q2155.8117,171.9253 2155.8117,168.8042 Q2155.8117,165.6748 2157.1315,164.0229 Q2158.4514,162.3711 2160.9582,162.3711 Q2161.6638,162.3711 2162.3112,162.5205 Q2162.9587,162.6699 2163.5231,162.9688 L2163.5231,165.6914 Q2162.8923,165.1104 2162.2988,164.8406 Q2161.7053,164.5708 2161.0744,164.5708 Q2159.7297,164.5708 2159.0449,165.6375 Q2158.3601,166.7041 2158.3601,168.8042 Q2158.3601,170.896 2159.0449,171.9626 Q2159.7297,173.0293 2161.0744,173.0293 Q2161.7053,173.0293 2162.2988,172.7595 Q2162.8923,172.4897 2163.5231,171.9087 Z " fill="#000000"/><text fill="#000000" font-family="sans-serif" font-size="14" lengthAdjust="spacing" textLength="103.1064" x="2175.05" y="173.7793">ReportExporter</text><line style="stroke:#181818;stroke-width:0.5;" x1="2147.05" x2="2280.1564" y1="184.4883" y2="184.4883"/><line style="stroke:#181818;stroke-width:0.5;" x1="2147.05" x2="2280.1564" y1="192.4883" y2="192.4883"/></g><!--link EngineRunner to RunConfig--><g class="link" data-entity-1="EngineRunner" data-entity-2="RunConfig" data-source-line="33" data-uid="lnk24" id="link_EngineRunner_RunConfig"><path codeLine="33" d="M1448.32,71.7783 C1316.29,77.5383 1002.41,96.4483 745.6,152.4883 C740.05,153.6983 740.0845,153.5339 734.4045,155.1739" fill="none" id="EngineRunner-to-RunConfig" style="stroke:#181818;stroke-width:1;"/><polygon fill="#181818" points="728.64,156.8383,738.3964,158.1847,733.4438,155.4513,736.1772,150.4987,728.64,156.8383" style="stroke:#181818;stroke-width:1;"/></g><!--link EngineRunner to MarketDataSource--><g class="link" data-entity-1="EngineRunner" data-entity-2="MarketDataSource" data-source-line="34" data-uid="lnk25" id="link_EngineRunner_MarketDataSource"><path codeLine="34" d="M1448.14,84.6683 C1378.74,101.2783 1264.24,128.7183 1165.6,152.4883 C1160.08,153.8183 1160.2015,153.7861 1154.4615,155.1761" fill="none" id="EngineRunner-to-MarketDataSource" style="stroke:#181818;stroke-width:1;"/><polygon fill="#181818" points="1148.63,156.5883,1158.3186,158.3577,1153.4895,155.4115,1156.4357,150.5824,1148.63,156.5883" style="stroke:#181818;stroke-width:1;"/></g><!--link EngineRunner to MarketDataEnvironment--><g class="link" data-entity-1="EngineRunner" data-entity-2="MarketDataEnvironment" data-source-line="35" data-uid="lnk26" id="link_EngineRunner_MarketDataEnvironment"><path codeLine="35" d="M1448.33,78.3683 C1347.92,92.6683 1145.97,122.2783 975.6,152.4883 C970.09,153.4683 970.3374,153.3932 964.6274,154.4632" fill="none" id="EngineRunner-to-MarketDataEnvironment" style="stroke:#181818;stroke-width:1;"/><polygon fill="#181818" points="958.73,155.5683,968.3128,157.8422,963.6445,154.6474,966.8393,149.9791,958.73,155.5683" style="stroke:#181818;stroke-width:1;"/></g><!--link EngineRunner to SimulationDriver--><g class="link" data-entity-1="EngineRunner" data-entity-2="SimulationDriver" data-source-line="36" data-uid="lnk27" id="link_EngineRunner_SimulationDriver"><path codeLine="36" d="M1455.11,92.8783 C1412.55,110.4983 1360.0234,132.2524 1317.5034,149.8624" fill="none" id="EngineRunner-to-SimulationDriver" style="stroke:#181818;stroke-width:1;"/><polygon fill="#181818" points="1311.96,152.1583,1321.8056,152.4101,1316.5795,150.2451,1318.7445,145.0189,1311.96,152.1583" style="stroke:#181818;stroke-width:1;"/></g><!--link EngineRunner to PortfolioPricer--><g class="link" data-entity-1="EngineRunner" data-entity-2="PortfolioPricer" data-source-line="37" data-uid="lnk28" id="link_EngineRunner_PortfolioPricer"><path codeLine="37" d="M1492.95,92.7483 C1478.78,110.4283 1463.135,129.9385 1448.965,147.5985" fill="none" id="EngineRunner-to-PortfolioPricer" style="stroke:#181818;stroke-width:1;"/><polygon fill="#181818" points="1445.21,152.2783,1453.9623,147.7619,1448.3391,148.3785,1447.7226,142.7553,1445.21,152.2783" style="stroke:#181818;stroke-width:1;"/></g><!--link EngineRunner to CollateralEngine--><g class="link" data-entity-1="EngineRunner" data-entity-2="CollateralEngine" data-source-line="38" data-uid="lnk29" id="link_EngineRunner_CollateralEngine"><path codeLine="38" d="M1530.26,92.7483 C1544.43,110.4283 1560.0767,129.9372 1574.2367,147.5972" fill="none" id="EngineRunner-to-CollateralEngine" style="stroke:#181818;stroke-width:1;"/><polygon fill="#181818" points="1577.99,152.2783,1575.4807,142.7544,1574.8622,148.3774,1569.2393,147.7589,1577.99,152.2783" style="stroke:#181818;stroke-width:1;"/></g><!--link EngineRunner to ExposureMetrics--><g class="link" data-entity-1="EngineRunner" data-entity-2="ExposureMetrics" data-source-line="39" data-uid="lnk30" id="link_EngineRunner_ExposureMetrics"><path codeLine="39" d="M1569.65,92.8783 C1613.36,110.4983 1667.4652,132.3048 1711.1452,149.9148" fill="none" id="EngineRunner-to-ExposureMetrics" style="stroke:#181818;stroke-width:1;"/><polygon fill="#181818" points="1716.71,152.1583,1709.8585,145.0832,1712.0727,150.2887,1706.8672,152.5029,1716.71,152.1583" style="stroke:#181818;stroke-width:1;"/></g><!--link EngineRunner to XVAEngine--><g class="link" data-entity-1="EngineRunner" data-entity-2="XVAEngine" data-source-line="40" data-uid="lnk31" id="link_EngineRunner_XVAEngine"><path codeLine="40" d="M1574.83,82.6283 C1645.8,97.7683 1764.15,124.2283 1864.6,152.4883 C1870.15,154.0483 1870.1701,153.9883 1875.9001,155.7683" fill="none" id="EngineRunner-to-XVAEngine" style="stroke:#181818;stroke-width:1;"/><polygon fill="#181818" points="1881.63,157.5483,1874.2218,151.0584,1876.8551,156.065,1871.8485,158.6983,1881.63,157.5483" style="stroke:#181818;stroke-width:1;"/></g><!--link EngineRunner to Backtest--><g class="link" data-entity-1="EngineRunner" data-entity-2="Backtest" data-source-line="41" data-uid="lnk32" id="link_EngineRunner_Backtest"><path codeLine="41" d="M1575.07,76.2883 C1669.73,87.3083 1853.04,112.0083 2004.6,152.4883 C2010.26,153.9983 2010.4358,153.8973 2016.2058,155.8473" fill="none" id="EngineRunner-to-Backtest" style="stroke:#181818;stroke-width:1;"/><polygon fill="#181818" points="2021.89,157.7683,2014.6444,151.0973,2017.1532,156.1675,2012.0831,158.6762,2021.89,157.7683" style="stroke:#181818;stroke-width:1;"/></g><!--link EngineRunner to ReportExporter--><g class="link" data-entity-1="EngineRunner" data-entity-2="ReportExporter" data-source-line="42" data-uid="lnk33" id="link_EngineRunner_ReportExporter"><path codeLine="42" d="M1574.68,75.2283 C1686.85,86.0383 1928.09,112.0583 2128.6,152.4883 C2134.15,153.6083 2134.035,153.4807 2139.755,154.8507" fill="none" id="EngineRunner-to-ReportExporter" style="stroke:#181818;stroke-width:1;"/><polygon fill="#181818" points="2145.59,156.2483,2137.7692,150.262,2140.7275,155.0837,2135.9059,158.042,2145.59,156.2483" style="stroke:#181818;stroke-width:1;"/></g><!--SRC=[VL51Zi8m3BppYfpsrY-ir2tiYaCbr2Aqrr0CiXeSvBY8vszA4neQQOyUpzZZiQ0OK9LbKELkgmfLQoHL6UqSEFMX6Z1Qq99RhReHLCr0bQKpNaAzeGiIU9I08wVMt8EijUWDtP4jNO5aXIJ0Pzr1qc_jm1r4tHwlyCDuYglGzT-w4ylLS8Iuxt6pRc1uGidCcLpR4vZ0zeTnk225MxmE4xfcl8_6zT49UxcQ25lovV2qFG4xotAs1csi6JkaYuz2u97U5XfJB4lns9nZgjhoPTDuEy3QlEdYhJM85xg0_XxAm4hMVkck5t3HRYjQtDxNKTJ0pPiO1xAC3jAtgQBuJFwQjR9t_SD87vxHijWpnZAfZ90bbJ6MeMM4ER-izKenZ-Szlpy0]--></g></svg>